<svg id="Layer_1" data-name="Layer 1" xmlns="http://www.w3.org/2000/svg" viewBox="0 0 1776.39 1328.01"><defs><style>.cls-1{fill:#560404;}</style></defs><path class="cls-1" d="M1269.44,899.67,1327.18,468a8.61,8.61,0,0,0-11.76-9.13c-.58.24-59.08,23.53-130.49,23.53-68,0-124.34-20.55-167.41-61.08a8.59,8.59,0,0,0-11.8,0c-43.06,40.52-99.38,61.07-167.41,61.08h0c-71.24,0-129.89-23.29-130.47-23.53A8.61,8.61,0,0,0,696.06,468L753.8,899.67a231.46,231.46,0,0,0,143.26,184l111.36,44.54a8.57,8.57,0,0,0,6.4,0l111.36-44.54A231.46,231.46,0,0,0,1269.44,899.67Zm-257.82,211.24-108.17-43.27A214.21,214.21,0,0,1,770.87,897.39L715,479.71c22.1,7.23,68.67,19.93,123.28,19.92h0c69.52,0,127.78-20.31,173.31-60.38,45.54,40.07,103.8,60.38,173.31,60.38,54.61,0,101.2-12.69,123.31-19.92l-55.87,417.68a214.21,214.21,0,0,1-132.58,170.25Z" transform="translate(-126.08 -267)"/><path class="cls-1" d="M1283.75,512.54a3.78,3.78,0,0,0-4.59-4.17,418.22,418.22,0,0,1-94.23,11.18c-66.85,0-124.4-17.76-171.05-52.79a3.75,3.75,0,0,0-4.52,0c-46.64,35-104.19,52.79-171.07,52.79a418.53,418.53,0,0,1-94.21-11.17,3.77,3.77,0,0,0-4.59,4.17l51.13,382.19a194.26,194.26,0,0,0,120.23,154.41l99.37,39.75a3.79,3.79,0,0,0,1.4.27,3.75,3.75,0,0,0,1.4-.27l99.37-39.75a194.27,194.27,0,0,0,120.24-154.41ZM1235.56,816,1118,748.13a121.76,121.76,0,0,0,6.62-14l116.21,42.29Zm6.06-45.34-115-41.86a121.36,121.36,0,0,0,4.05-15l115.85,20.43Zm5.62-42-115.61-20.39a123,123,0,0,0,1.38-15.46h119Zm5.55-41.5H1133a123,123,0,0,0-1.3-15.47l126.12-22.24Zm5.83-43.58-127.86,22.54a121.26,121.26,0,0,0-4-15L1264.31,601Zm6.54-48.84-140.29,51.06a121,121,0,0,0-6.53-14.09l153.74-88.77Zm10.4-77.78L1273,535.83l-157.51,90.93a120.78,120.78,0,0,0-8.89-12.73l104.69-87.84-1.65.1A435.7,435.7,0,0,0,1275.56,516.91Zm-90.63,10.18q10.82,0,21.82-.62c-1.61.09-3.23.17-4.84.24l-98.89,83a123.78,123.78,0,0,0-11-11l61.23-73Q1168.75,527.08,1184.93,527.09Zm-38.45-2-58.73,70a122.75,122.75,0,0,0-12.69-8.95l38.32-66.37A317.34,317.34,0,0,0,1146.48,525.06Zm-38.86-6.65-37.44,64.85a119.3,119.3,0,0,0-14-6.61l24.1-66.23A280,280,0,0,0,1107.62,518.41Zm-32.7-9.9-24.09,66.19a123,123,0,0,0-15-4.05l13-73.48A264.45,264.45,0,0,0,1074.92,508.51Zm-60.11-31.76a257.4,257.4,0,0,0,28.73,17.71l-13.26,75.2a123,123,0,0,0-15.47-1.37ZM1090,611.34a110.73,110.73,0,0,1,9,146.39l-27.16-18.2A45.34,45.34,0,0,0,1082.5,726a41.77,41.77,0,0,0,4.8-19.92,36.65,36.65,0,0,0-4.94-19,40.28,40.28,0,0,0-12.79-13.44,140.48,140.48,0,0,0-18-9.73,145.81,145.81,0,0,0-20.79-7.64q-10.61-3-20.78-7t-18.18-7.88A35.77,35.77,0,0,1,978.86,631a23.47,23.47,0,0,1-5-14.6,12,12,0,0,1,1-4.87,20.33,20.33,0,0,1,3.2-4.86c1.45-1.7,3.83-3.05,7.12-4.06a41.41,41.41,0,0,1,11.92-1.51q11.63,0,24.86,6a102.17,102.17,0,0,1,23.11,14.25,107.76,107.76,0,0,1,16.58,16.92q6.67,8.68,6.68,14h9l.29-39.86-2.62-2.32a66.55,66.55,0,0,0-8.14-5.79,113.37,113.37,0,0,0-12.79-6.84,87.63,87.63,0,0,0-18-5.67,105.65,105.65,0,0,0-22.38-2.32q-29.37,0-51.32,13.44t-21.95,33.83A31,31,0,0,0,946,654.67a48.55,48.55,0,0,0,14.54,13.79,156.91,156.91,0,0,0,20.64,10.78,204,204,0,0,0,23.7,8.69q12.06,3.59,23.69,7.53t20.64,7.3a51.05,51.05,0,0,1,14.54,7.87q5.52,4.53,5.53,9.62,0,5.57-7.42,8.69a30,30,0,0,1-3.89,1.32l-42.85-28.72h-6.9l-24.93,16.71a80.16,80.16,0,0,1-13-9.35,82,82,0,0,1-11.63-12.28,73.77,73.77,0,0,1-7-11.59c-1.94-4-3.16-6.72-3.64-8.11s-.83-2.47-1-3.25h-4.94l-.87,65.12,2.62,2.08a22.82,22.82,0,0,0,2.86,1.89l-22.33,15A110.71,110.71,0,0,1,1090,611.34Zm-78.34-136.88,0,0-2.49,1.78v92a121.33,121.33,0,0,0-15.47,1.29l-13.3-75.45-1.44.75A256.75,256.75,0,0,0,1011.62,474.46ZM978.72,495c-1.19.63-2.38,1.26-3.59,1.86l13,73.7a119.64,119.64,0,0,0-15,4L949,508.27q-2.64,1-5.31,1.92l24.1,66.23A121.84,121.84,0,0,0,953.71,583l-37.36-64.71q-2.85.69-5.75,1.32l38.22,66.2a121.23,121.23,0,0,0-12.73,8.89L877.61,525l-.5,0C914.3,521,948.28,510.92,978.72,495ZM838.31,527.09q17.07,0,33.33-1.52l-.83.08,60.94,72.63a122.23,122.23,0,0,0-11,11l-98.29-82.47C827.78,527,833.06,527.09,838.31,527.09ZM750.1,535l-2.42-18.05a435.47,435.47,0,0,0,65.41,9.34l104,87.28a122.39,122.39,0,0,0-9,12.69L750.16,535ZM758,594l-7-51.9.06,0,154.22,89a121.76,121.76,0,0,0-6.62,14L758,594Zm6.54,48.89-5.7-42.56h.06l137.87,50.18a119.62,119.62,0,0,0-4,15L764.58,642.87Zm5.84,43.66-5.06-37.78.06,0L891.72,671a121.17,121.17,0,0,0-1.38,15.46H770.42ZM775.92,728l-4.8-35.89H890.33a123.18,123.18,0,0,0,1.3,15.47L776,728Zm5.62,42-4.87-36.43h.05l115.87-20.44a121,121,0,0,0,4,15L781.59,770Zm6.06,45.33-5.29-39.58.05,0,116.12-42.26A120.13,120.13,0,0,0,905,747.58L787.65,815.34Zm4.18,31.27-3.37-25.22.05,0,119.36-68.92a122.07,122.07,0,0,0,7.71,11.2l-123.7,82.92Zm219.84,234.71L988,1071.9l.18-1L1011.67,990l23.73,81.84Zm69.54-27.82-54.7-120.65H996.89l-54.1,119.31h0l-.61,1.36h0v0L918,1043.88l.35-.71,93.34-169,93.71,169.69Zm53.54-23.68L1021,849.37h-18.58L889.07,1029.16h0l-.47.72a186.83,186.83,0,0,1-31.46-23.24l0,0,154.5-195.23,154.49,195.2A186.62,186.62,0,0,1,1134.7,1029.84Zm48.55-41.12L1017.63,796.63h-11.92L840.07,988.76h0l0,0a187.16,187.16,0,0,1-19.9-28.87l0,0L1011.67,769l191.46,190.89A186.17,186.17,0,0,1,1183.25,988.72Zm28.3-45.9L1016,758.22h-8.7L812.56,942.1l-.8.76,0,0a185.7,185.7,0,0,1-10.44-31.68l.12-.11L1011.67,734,1222,911.14A185.64,185.64,0,0,1,1211.55,942.82Zm13.62-49.19-209.76-168h-7.47l-209.81,168,0,.06-3.75-28.08,0,0,217.29-155.72,217.25,155.68Zm-117.36-130a120.3,120.3,0,0,0,7.38-10.66l119.56,69-3.28,24.53Z" transform="translate(-126.08 -267)"/><path class="cls-1" d="M1289.84,948.62c-7.89,14.64-13.78,30.73-14.12,47.36s5.46,33.86,17.87,44.92,31.85,14.64,46.27,6.34c-13.69,4.7-29.29-.41-39-11.13s-13.18-26.39-10.23-40.56,11.85-26.75,23.41-35.46a350.21,350.21,0,0,0,40.67-35.79c12-12.6,21.58-28.27,23.84-45.55,2.51-19.13-6.38-37.71-20.26-51.1a464.33,464.33,0,0,1-41.54,79C1307.62,920.54,1297.73,934,1289.84,948.62Z" transform="translate(-126.08 -267)"/><path class="cls-1" d="M1362.83,960.82c-9.61-3.45-20.47-2.76-30,1a49.74,49.74,0,0,0-25.44,70.06,43.57,43.57,0,0,1,.87-28.94c3.48-9.17,10.94-16.95,20.28-19.94s20.39-.75,27.22,6.29c5.86,6,8.1,14.81,8.71,23.2,19.84-10.16,19.13-30.62,19.13-30.62C1380.62,972.08,1372.45,964.28,1362.83,960.82Z" transform="translate(-126.08 -267)"/><path class="cls-1" d="M1352.8,1012c-3.36-5.8-10.87-8.54-17.4-7s-11.87,6.73-14.35,12.95-2.32,13.29-.46,19.73c.17-4.8,1.2-10.49,4-14.39s7.49-6.64,12.28-6.28a11.79,11.79,0,0,1,8.77,5.12,11.23,11.23,0,0,1,1.65,9.75C1358.49,1024.57,1352.8,1012,1352.8,1012Z" transform="translate(-126.08 -267)"/><path class="cls-1" d="M1359,1048.11a5.78,5.78,0,1,0-8.14-.67A5.76,5.76,0,0,0,1359,1048.11Z" transform="translate(-126.08 -267)"/><path class="cls-1" d="M1469.08,798c-16.5-4.37-34.75,2.29-46.59,14.59s-17.73,29.45-18.84,46.48,2.21,34.06,6.81,50.49,10.49,32.5,14.69,49c3.39,13.37,5.66,27.45,2.63,40.9a53.49,53.49,0,0,1-62.48,40.72c17.8,7.43,38.89,2.56,53.52-10s23.12-31.05,27.24-49.88a139.85,139.85,0,0,0-4-73.92c-4.5-13.43-11-26.15-14.72-39.83s-4.13-29.06,3.09-41.24a36.5,36.5,0,1,1,62,38.42c-3.56,5.51-9.49,8.56-15,5.08,5.64-7.25,0-19.55-9.1-21s-17.93,7.15-17.94,16.34,7.67,17.39,16.67,19.22,18.6-2,24.9-8.72,9.54-15.83,10.38-25C1504.39,827.56,1490.62,803.73,1469.08,798Z" transform="translate(-126.08 -267)"/><path class="cls-1" d="M669.3,924.3A350.21,350.21,0,0,0,710,960.09c11.56,8.71,20.46,21.28,23.41,35.46s-.5,29.84-10.23,40.56-25.32,15.83-39,11.13c14.42,8.3,33.86,4.73,46.27-6.34s18.2-28.3,17.87-44.92-6.23-32.72-14.12-47.36-17.78-28.08-26.9-42a464.33,464.33,0,0,1-41.54-79c-13.88,13.39-22.77,32-20.26,51.1C647.72,896,657.25,911.7,669.3,924.3Z" transform="translate(-126.08 -267)"/><path class="cls-1" d="M659.51,1012.47c.61-8.39,2.85-17.17,8.71-23.2,6.83-7,17.88-9.28,27.22-6.29s16.8,10.77,20.28,19.94a43.57,43.57,0,0,1,.87,28.94,49.74,49.74,0,0,0-25.44-70.06c-9.51-3.74-20.37-4.43-30-1s-17.79,11.26-20.79,21C640.38,981.85,639.67,1002.31,659.51,1012.47Z" transform="translate(-126.08 -267)"/><path class="cls-1" d="M687.13,1017c4.79-.36,9.48,2.38,12.28,6.28s3.83,9.59,4,14.39c1.86-6.44,2-13.51-.46-19.73s-7.82-11.45-14.35-12.95-14,1.24-17.4,7c0,0-5.69,12.57,5.51,19.84a11.23,11.23,0,0,1,1.65-9.75A11.79,11.79,0,0,1,687.13,1017Z" transform="translate(-126.08 -267)"/><path class="cls-1" d="M672.43,1039.3a5.78,5.78,0,1,0,.67,8.14A5.76,5.76,0,0,0,672.43,1039.3Z" transform="translate(-126.08 -267)"/><path class="cls-1" d="M658.7,1040.24a53.49,53.49,0,0,1-62.48-40.72c-3-13.45-.76-27.53,2.63-40.9,4.2-16.54,10.09-32.6,14.69-49s7.92-33.46,6.81-50.49-7-34.18-18.84-46.48-30.09-19-46.59-14.59c-21.54,5.71-35.31,29.54-33.26,51.73.84,9.15,4.08,18.29,10.38,25s15.9,10.56,24.9,8.72,16.68-10,16.67-19.22-8.87-17.75-17.94-16.34-14.74,13.72-9.1,21c-5.56,3.48-11.49.43-15.05-5.08a36.5,36.5,0,1,1,62.05-38.42c7.22,12.18,6.75,27.56,3.09,41.24s-10.22,26.4-14.72,39.83a139.85,139.85,0,0,0-4,73.92c4.12,18.83,12.61,37.32,27.24,49.88S640.9,1047.67,658.7,1040.24Z" transform="translate(-126.08 -267)"/><path class="cls-1" d="M943.93,1205.52c-4,10.25.58,21.08,6.92,25.07,2.79,2.34,7.95,4,11.41,3.5,3.33,0,5.71-2.33,8.5-4.08a7.33,7.33,0,0,0,3.42-5.66c1.16-2.25,0-4,0-5.17a11,11,0,0,1-1.13-2.91,5.85,5.85,0,0,0,.62,2.91c-.62,2.92-.62,5.66-5.2,9.08-3.41,1.75-9,2.33-13.08-1.66-4.54-3.92-5.75-11.41-2.88-17.67.54-1.75,1.75-2.33,2.38-3.41.5-.59,1.58-1.17,2.16-1.75a12,12,0,0,1,1.17-1.08l1.21-.67a24.8,24.8,0,0,1,10.79-2.25c8.62,1.17,14.78,4.58,18.78,13.16,3.46,8,4,17.08,0,25.75a7.17,7.17,0,0,1-1.66,2.83c-1.13,3.33-4,6.16-7.46,8.58H1001a20.92,20.92,0,0,0,2.79-5.25,7.23,7.23,0,0,0,1.26-3.33c3.95-12,2.25-25.24-4.05-34.91l-2.28-4.58c-1.75-2.25-1.75-2.25-2.79-3.42a30.22,30.22,0,0,0-7.46-6.24,41.64,41.64,0,0,0-18.29-4.59c-5.71.58-11.42,1.75-16,5.17l-1.75,1.16c-1.66,1.09-1.12,1.09-1.66,1.75a7.35,7.35,0,0,0-2.92,2.26A15.81,15.81,0,0,0,943.93,1205.52Z" transform="translate(-126.08 -267)"/><path class="cls-1" d="M891.94,1204.35c.55,4.58.55,10.33,1.17,15.42,1.75,5.07,2.33,10.24,4.54,15.4,1.25,2.34,2.38,4,3.45,6.34a78.19,78.19,0,0,0,4.55,8.58h19.41c-.54-1.16-1.66-1.16-2.83-2.42l-5.09-6.16c-2.28-2.83-4.58-8-7.45-11.5-1.67-4-3.42-8.58-5.08-13.16-.63-4.5-1.17-8.5-1.75-13.08v-12c1.12-4,1.75-8,2.79-11.41.62-4,2.37-6.83,3.41-9.75,2.3-6.83,6.88-10.75,9.12-15.33a123.21,123.21,0,0,1,10.38-10.91,19.81,19.81,0,0,0-3.5,1.24c-1.66,2.17-5.12,3.92-9.12,7.34-3.38,4-8.54,8-12,14.32-1.75,3.34-4,6.26-5.71,10.26-1.2,4.08-2.83,8-4,12.57C893.65,1194.1,893.11,1199.27,891.94,1204.35Z" transform="translate(-126.08 -267)"/><path class="cls-1" d="M1114.69,1191.77c0,3.42.49,8,.49,12-.49,4.58-1.66,8.58-2.24,13.08-1.67,4.58-2.83,9.16-4.59,13.16-2.91,3.5-5.08,8.67-8,11.5l-5.09,6.16c-1.16,1.26-1.75,1.26-2.24,2.42h19.41a61.24,61.24,0,0,0,4.49-8.58c1.17-2.33,1.75-4,2.83-6.34,2.34-5.16,3.43-10.33,4.59-15.4a147.57,147.57,0,0,0,1.16-15.42c-.58-5.08-1.16-10.25-1.66-14.25-1.17-4.58-2.92-8.49-4.09-12.57-1.66-4-3.91-6.92-5.58-10.26-3.49-6.33-9.24-10.33-12.08-14.32-3.91-3.42-7.41-5.17-9.75-7.34-1.07-.66-1.66-1.24-2.83-1.24a101,101,0,0,1,10.33,10.91c2.25,4.58,6.84,8.5,8.5,15.33,1.17,2.92,3.51,5.75,4.09,9.75A82.93,82.93,0,0,0,1114.69,1191.77Z" transform="translate(-126.08 -267)"/><path class="cls-1" d="M1013,1241.51a7.12,7.12,0,0,0,1.21,3.33,24.77,24.77,0,0,0,2.79,5.25h20.54c-2.79-2.42-5.71-5.25-7.38-8.58-.58-1.17-1.12-1.83-1.66-2.83-3.5-8.67-3.5-17.75.54-25.75,3.41-8.58,10.25-12,18.33-13.16,3.91,0,7.91.58,10.83,2.25l1.09.67a1.17,1.17,0,0,1,1.16,1.08c1.16.58,2.25,1.16,2.25,1.75,1.08,1.08,2.33,1.66,2.83,3.41,2.83,6.26,1.75,13.75-2.83,17.67-4,4-9.67,3.41-13.17,1.66-5.12-3.42-5.12-6.16-5.12-9.08a5.77,5.77,0,0,0,.63-2.91,10.34,10.34,0,0,1-1.17,2.91c0,1.17-1.08,2.92-.55,5.17a12.24,12.24,0,0,0,3.47,5.66c3.41,1.75,5.07,4.08,9.07,4.08,3.43.5,8.5-1.16,11.42-3.5,6.24-4,10.25-14.82,6.92-25.07a18.44,18.44,0,0,0-4.59-7.41,7.34,7.34,0,0,0-2.33-2.26c-.5-.66,0-.66-1.75-1.75l-1.75-1.16c-4.49-3.42-10.24-4.59-16.41-5.17a39.25,39.25,0,0,0-17.79,4.59c-2.83,1.74-6.25,4.49-7.37,6.24a17.07,17.07,0,0,0-3.46,3.42l-2.25,4.58A43.45,43.45,0,0,0,1013,1241.51Z" transform="translate(-126.08 -267)"/><path class="cls-1" d="M1040.2,1160.12c-8.66,5.82-17.79,16.57-25.45,29.32-5.88,8.16-8.08.75-8.08.75l-5-6c-6.75-10.17-14-18.08-20.16-22.25-23.62-19-49.49-17.66-48.82-23.15.08-2,5.41-3.25,15.37-3.34,9.58.09,24.41,3,39.15,13.33,8.63,5.83,16.17,15.75,21.79,27.16,6.17-10.91,13.37-20.24,20.38-24.83,6.78-6,14.74-8.91,21.44-12.16,7.26-1.58,13.42-3.5,18.75-3.83,10.75-.17,16.92.83,17,2.75C1087.19,1143.28,1065,1143.28,1040.2,1160.12Z" transform="translate(-126.08 -267)"/><path class="cls-1" d="M644.46,1204.44c5.91-5.84,12.16-16.59,17.33-29.34-1-4.74,2.37-6.15,2.37-6.15,1.21-3.34,3.09,5.49,3.09,5.49l3.37,5.92c4.54,10.08,9.5,18.24,13.7,22.33,16.13,18.91,33.66,17.66,33.16,23.16,0,2-3.66,3.24-10.37,3.24-6.62-.16-16.66-3.08-26.7-13.32-5.83-5.92-10.79-15.67-14.83-27.17-4.08,10.92-9,20.33-13.75,24.91-4.66,6-10,8.83-14.54,12.08-4.95,1.68-9.2,3.5-12.78,3.76-7.38.33-11.46-.59-11.46-2.75C612.51,1221.27,627.71,1221.27,644.46,1204.44Z" transform="translate(-126.08 -267)"/><path class="cls-1" d="M1332.05,1204.44c6-5.84,12.08-16.59,17.33-29.34-1-4.74,2.34-6.15,2.34-6.15,1.16-3.34,3.25,5.49,3.25,5.49l3.32,5.92c4.51,10.08,9.42,18.24,13.76,22.33,16,18.91,33.48,17.66,33.07,23.16-.17,2-3.67,3.24-10.41,3.24-6.59-.16-16.58-3.08-26.67-13.32-5.83-5.92-10.91-15.67-14.75-27.17-4.16,10.92-9.16,20.33-13.83,24.91-4.66,6-10.07,8.83-14.58,12.08-4.82,1.68-9.07,3.5-12.83,3.76-7.24.33-11.4-.59-11.4-2.75C1300.14,1221.27,1315.3,1221.27,1332.05,1204.44Z" transform="translate(-126.08 -267)"/><path class="cls-1" d="M699.53,1190.1c14.91,20.58,41.66,36.5,72,45.07,6.75,2.34,14.21,4,21.09,6.34l27.44,8.58h65l-10.25-5.25c-2.83-1.08-6.33-2.75-9.2-3.33-30.2-12.58-61.61-19.41-89-25.24-28.5-6.17-53.7-17-68-33.08a74.33,74.33,0,0,1-21.08-47.91,58.33,58.33,0,0,1,.63-15.41,27.62,27.62,0,0,1,.5-5.17c0,1.67-2.25,8.59-3.5,20.58A84.78,84.78,0,0,0,699.53,1190.1Z" transform="translate(-126.08 -267)"/><path class="cls-1" d="M1132.93,1250.09h65.15c9.67-2.91,19.33-6.33,29.08-8.58,6.25-2.33,12.58-4,18.91-5.75,30.75-9.16,57.57-25.08,71.82-46.24,14.91-19.91,16.08-41.74,14.91-54.24a67,67,0,0,0-3.41-17.66,18.78,18.78,0,0,1,.58,2.75c.58,3.42.58,8.58,0,14.91-.58,12.5-5.16,32-20.58,47.41-14.25,16.58-39.91,27.41-68.48,34.16-26.83,5.25-57.66,12.08-88.56,24.66-2.84,1.09-6.26,2.25-9.09,3.33C1139.76,1246.59,1136.35,1248.34,1132.93,1250.09Z" transform="translate(-126.08 -267)"/><path class="cls-1" d="M1358.71,1120.37s5.17-3.42,14.58-8.41c5.42-1.59,10.5-4.92,18.08-5.67,3.25-.42,6.92-1.66,11.17-1.33,3.67,0,7.91.08,12.24,0,3.92.83,8.42,1.75,13.09,2.91,4.25,1.5,8.41,3.17,13.08,5,4.07,2.75,8.41,5.42,12.32,8.09,3.08,3.74,8,7.41,10.42,10.66l5.16,7c1.17,2.41,1.59,4.33,2.67,6.5s1.33,4.74,1.84,7.16a18.94,18.94,0,0,1,1.24,7.49c.75,10.34-1.91,21.08-8,29.42-5.5,8.83-14.33,15.66-23.34,17.08a32.88,32.88,0,0,1-26.73-6.67c-7.76-5.83-10.26-13.75-9.42-22.49,1.17-3.83,2.5-7.75,5.33-10.75l.84-1.17c-.59.26.82-.58,1-.75a23.12,23.12,0,0,1,2.67-2.08,14.14,14.14,0,0,1,4.33-1.75c6.92-1.58,14.67,1.5,17.41,7,3.34,5.08,1.33,11.25-1.33,14.33-4.16,4.33-7.41,3.42-10.66,3a29.89,29.89,0,0,1-3.59-2.08s1,.83,3.34,2.91c1.42.25,3.17,1.59,5.25,1.34a12.09,12.09,0,0,0,7.24-2c2.42-2.83,5.26-4.66,5.92-8.32,1.66-3.25.83-9.17-.59-12.5-2.91-7.83-13.08-14.83-24.57-13.34a18.31,18.31,0,0,0-8.91,2.67c-1.34.75-2,1.25-3.25,1.92-.42.5-.51.17-2,1.5l-1.41,1.5c-4.75,3.83-7.42,9.75-9.41,15.91A40.82,40.82,0,0,0,1395,1194a38.37,38.37,0,0,0,4.66,9.49c1.34,1.34,1.09,1.84,3.33,4.09l3.76,3.34c10,9.32,24.91,14.49,39.32,11.74,15.24-2.42,27.08-12.33,34.57-23.91a62.72,62.72,0,0,0,10.51-40,42.39,42.39,0,0,0-1.68-10.08c-1-3.51-1.41-6.67-3.32-9.84-1.75-3.41-3.34-6.74-4.75-9.41l-5.58-7c-4.93-5.5-9.34-8.66-14.25-12.66-4.92-3.34-10.25-5.58-15.25-8.41-5.33-1.68-10.66-3.42-15.83-4.92-5.09-.25-10.58-1-15.41-1.25-4.92.25-9.59.92-13.75,1.25-4.34.83-8.5,2.58-12.24,3.59-7.17,2.15-13.09,6.66-17.75,8.9-4.25,3.42-7.17,6.5-9.67,8.09C1359.88,1119.21,1358.71,1120.37,1358.71,1120.37Z" transform="translate(-126.08 -267)"/><path class="cls-1" d="M663.91,1120.37s-5.16-3.42-14.58-8.41c-5.33-1.59-10.45-4.92-18-5.67-3.38-.42-7-1.66-11.29-1.33-3.71,0-7.92.08-12.16,0-4.09.83-8.5,1.75-13.09,2.91-4.49,1.5-8.49,3.17-13.16,5-4.16,2.75-8.5,5.42-12.25,8.09-3.24,3.74-7.95,7.41-10.62,10.66l-5.12,7c-1,2.41-1.58,4.33-2.67,6.5-1.29,2.08-1.29,4.74-1.87,7.16a19.55,19.55,0,0,0-1.17,7.49c-.75,10.34,1.83,21.08,7.92,29.42,5.62,8.83,14.45,15.66,23.45,17.08a33.1,33.1,0,0,0,26.74-6.67c7.83-5.83,10.13-13.75,9.46-22.49-1.21-3.83-2.58-7.75-5.33-10.75l-.84-1.17c.63.26-.91-.58-1.08-.75a26.4,26.4,0,0,0-2.58-2.08,17.21,17.21,0,0,0-4.46-1.75c-6.87-1.58-14.41,1.5-17.45,7-3.34,5.08-1.21,11.25,1.37,14.33,4.42,4.33,7.54,3.42,10.75,3,2.41-1.34,3.62-2.08,3.62-2.08s-1,.83-3.41,2.91c-1.3.25-3.13,1.59-5.25,1.34-3,.25-5.17-.84-7.29-2-2.46-2.83-5.25-4.66-5.88-8.32-1.75-3.25-.83-9.17.63-12.5,2.75-7.83,13-14.83,24.49-13.34a17.12,17.12,0,0,1,8.83,2.67c1.38.75,2.21,1.25,3.34,1.92.54.5.62.17,2,1.5l1.41,1.5c4.67,3.83,7.38,9.75,9.46,15.91a43.19,43.19,0,0,1-.25,19.58c-1.38,3.58-3.25,7.75-4.79,9.49-1.38,1.34-1,1.84-3.33,4.09l-3.75,3.34c-10,9.32-24.87,14.49-39.33,11.74-15.37-2.42-27-12.33-34.66-23.91a64.5,64.5,0,0,1-10.45-40A48.74,48.74,0,0,1,533,1148.7c1-3.51,1.33-6.67,3.33-9.84,1.83-3.41,3.33-6.74,4.87-9.41l5.54-7c4.88-5.5,9.38-8.66,14.25-12.66,4.83-3.34,10.08-5.58,15.29-8.41,5.25-1.68,10.62-3.42,15.79-4.92,5-.25,10.58-1,15.28-1.25,5,.25,9.63.92,13.88,1.25,4.33.83,8.29,2.58,12.08,3.59,7.25,2.15,13.16,6.66,17.78,8.9,4.29,3.42,7.42,6.5,9.75,8.09C662.87,1119.21,663.91,1120.37,663.91,1120.37Z" transform="translate(-126.08 -267)"/><path class="cls-1" d="M519.32,1174.77c-1.54.17-1.75,4.67-1.12,12.25.29,3.75,2,8.17,3.5,13.25,2.41,4.5,4.91,10.25,9.41,14.66,4,5.25,11.62,10.5,20.54,14.42s19.45,5.58,29.07,6a119,119,0,0,0,32.62-3.33c-11,2.75-27.53,2.17-42.53-2.42-15.21-4.66-27.29-14.33-33.7-22.74C524,1190,523.11,1174.11,519.32,1174.77Z" transform="translate(-126.08 -267)"/><path class="cls-1" d="M1501.43,1172.78c1.42.24,1.84,4.66,1.25,12.24-.5,3.84-2.08,8.25-3.58,13.25-2.5,4.58-5.08,10.24-9.59,14.66-3.83,5.16-11.49,10.5-20.33,14.58-9.16,3.67-19.58,5.42-29.07,5.92a115.47,115.47,0,0,1-32.57-3.42c10.91,2.75,27.32,2.17,42.41-2.5,15.16-4.49,27.4-14.16,33.65-22.66C1496.6,1188,1497.52,1172.2,1501.43,1172.78Z" transform="translate(-126.08 -267)"/><path class="cls-1" d="M601.47,1061.05c34.16-4,70.19,5.5,103.6,20.66,33,15.58,61.53,36.66,86.19,55.24,23.49,17.33,48.15,29.24,70,29.24A74,74,0,0,0,911,1150.28a48.7,48.7,0,0,0,11-10.42,20.64,20.64,0,0,0,3.33-3.83c-.91.92-4.54,7.41-12.7,16.17a81.33,81.33,0,0,1-50.82,25.24c-25.16,2.75-54.91-7.16-81.44-24.07-14.71-9.17-29.21-19-44.66-28.08-1.37-.59-2-1.5-3-1.5-8.58-5-18.21-10.09-27.24-14.67-2.05-1.5-4.25-2.16-6.38-3.58-1.37-.58-3-1.5-4.33-2.17a332.87,332.87,0,0,0-37.83-14.58l-.58.42a8,8,0,0,0-4.75-1.66,65.06,65.06,0,0,0-7.12-1.5,27.11,27.11,0,0,0-8.25-1.67c-11.08-2.09-22.29-3.33-32.53-2.75-28.29,1.34-50.28,17.25-64.36,34.74-6.92,8.42-12.79,17-16.5,25.33a133.58,133.58,0,0,0-9.83,21.16c-3.25,8.66-5.92,15.33-7,17.91.29-2.83,2-9.33,3.5-19,.87-6.75,3.16-14.58,6.37-23.33,3-9.17,8.08-18.66,13.71-29.5C542,1088.79,567.23,1065.89,601.47,1061.05Z" transform="translate(-126.08 -267)"/><path class="cls-1" d="M1420,1061.05c-34.16-4-70.24,5.5-103.65,20.66-32.9,15.58-61.31,36.66-86.14,55.24-23.33,17.33-48.16,29.24-70,29.24a74,74,0,0,1-49.74-15.91,51.32,51.32,0,0,1-11-10.42A24.13,24.13,0,0,1,1096,1136c1.08.92,4.58,7.41,12.83,16.17a81,81,0,0,0,50.74,25.24c25.24,2.75,55-7.16,81.48-24.07,14.58-9.17,29.16-19,44.58-28.08,1.41-.59,2.17-1.5,3.16-1.5,8.59-5,18-10.09,27.08-14.67,2.17-1.5,4.25-2.16,6.42-3.58,1.41-.58,3.08-1.5,4.41-2.17a324.84,324.84,0,0,1,37.91-14.58l.5.42c.83-.91,2.91-1.59,4.83-1.66a56.89,56.89,0,0,1,7-1.5,26.92,26.92,0,0,1,8.41-1.67c10.91-2.09,22-3.33,32.41-2.75,28.25,1.34,50.24,17.25,64.32,34.74,6.83,8.42,12.92,17,16.5,25.33a143.49,143.49,0,0,1,9.91,21.16c3.17,8.66,5.83,15.33,6.91,17.91-.07-2.83-2-9.33-3.41-19-.91-6.75-3.33-14.58-6.58-23.33-2.75-9.17-8-18.66-13.5-29.5C1479.44,1088.79,1454.11,1065.89,1420,1061.05Z" transform="translate(-126.08 -267)"/><path class="cls-1" d="M906.48,1134.28a5.9,5.9,0,0,1,1.67-1.33,3.54,3.54,0,0,1,.71-.91c-.63.91-2.05,2.57-3.21,3.91a3,3,0,0,1-.37.92,31.19,31.19,0,0,1-3.88,4.16,14.5,14.5,0,0,1-4.33,3.92,35.51,35.51,0,0,0-5.25,3.33l-4.88,1.58a6.72,6.72,0,0,0-1.08.17c-3.7,1.5-7.2,3.34-12.08,3.75-14.37,1.75-31.58-4.25-46.78-14.08-8.12-5-16.37-10.84-24.87-15.91-1.21-.42-1.54-1.26-1.83-1.09-5-3.08-10.42-5.92-15.46-8.42-1.33-1.08-2.58-1.41-3.87-2.32-.75-.34-1.5-.58-2.25-1l3.08-2.17c18.75,9.25,75,33.49,77.44,34.16s5,.75,7.79,1.33a58.21,58.21,0,0,0,8.58-.08c2.67-1.25,6.17-1.42,8.38-2.17l.29-.16,4.16-1.92c1.26-.75,2.09-1.58,3.3-2.25a9.8,9.8,0,0,0,2.87-3.17,8.37,8.37,0,0,0,2.66-3.24c3.5-4.75,5.59-10.92,4.8-16.59-.13-6.16-2.5-11.75-6.54-15.33a17.72,17.72,0,0,0-14.75-4.49c-5.88.75-9,3.66-11.41,8.33A12.58,12.58,0,0,0,869,1110v.75a3.35,3.35,0,0,1,.38.59c.25.24.29,1.49.62,1.82a9.07,9.07,0,0,0,1.5,2.09,10,10,0,0,0,10.87,1.75,7.28,7.28,0,0,0,3.12-7.5c-.58-3.42-2.5-4.09-4.16-4.67a10.16,10.16,0,0,1-1.66,0,4.38,4.38,0,0,1,1.87-.58c.63.58,1.83.17,3,1.25a6.79,6.79,0,0,1,2.92,2.75c.46,2.33,1.2,3.91.37,6-.17,2.09-2.38,4.67-4.13,6-3.7,2.91-10.4,3.24-15.57-.75a8.16,8.16,0,0,1-3.75-3.75l-1.12-1.75c-.38-.84-.18-.5-.38-1.5l-.29-1.5c-1.25-2.92-.79-6.58,0-10.41a20.78,20.78,0,0,1,5.83-9.34c1.83-1.33,3.84-2.92,5.25-3.16a5.61,5.61,0,0,1,2.66-1.17l2.92-.91c7.42-1.17,16.25.58,22.58,6.16,6.91,5.75,9.75,13.91,10.21,21.91A37.43,37.43,0,0,1,906.48,1134.28Z" transform="translate(-126.08 -267)"/><path class="cls-1" d="M1110.35,1134.28a16.16,16.16,0,0,0-1.5-1.33c-.5-.5-.83-.91-.83-.91.5.91,2.09,2.57,3.08,3.91.25.34.25.58.5.92a46.7,46.7,0,0,0,3.84,4.16c1.33,1.5,2.41,3,4.25,3.92a28.29,28.29,0,0,1,5.24,3.33l5,1.58c.17.09.58,0,1,.17,3.83,1.5,7.25,3.34,12.08,3.75,14.41,1.75,31.58-4.25,46.66-14.08,8.33-5,16.41-10.84,25.07-15.91,1.17-.42,1.42-1.26,1.75-1.09,5-3.08,10.42-5.92,15.5-8.42,1.42-1.08,2.58-1.41,4-2.32.67-.34,1.34-.58,2.09-1l-3.18-2.17c-18.65,9.25-74.89,33.49-77.39,34.16s-4.83.75-7.75,1.33a57.2,57.2,0,0,1-8.5-.08c-2.74-1.25-6.16-1.42-8.41-2.17l-.25-.16-4.34-1.92a24.25,24.25,0,0,0-3.24-2.25,8.66,8.66,0,0,1-2.76-3.17,7.8,7.8,0,0,1-2.66-3.24c-3.58-4.75-5.58-10.92-4.84-16.59.18-6.16,2.5-11.75,6.51-15.33a18,18,0,0,1,14.82-4.49c5.67.75,9,3.66,11.34,8.33a13.13,13.13,0,0,1,.33,6.83v.75a1.39,1.39,0,0,0-.33.59,6.17,6.17,0,0,1-.67,1.82,4.41,4.41,0,0,1-1.42,2.09c-2.75,2.83-7.66,3.33-10.91,1.75a7.25,7.25,0,0,1-3-7.5c.49-3.42,2.41-4.09,4.07-4.67a9.33,9.33,0,0,0,1.59,0,3.7,3.7,0,0,0-1.75-.58c-.59.58-1.92.17-3.17,1.25a7.05,7.05,0,0,0-2.91,2.75c-.33,2.33-1.17,3.91-.33,6,.16,2.09,2.5,4.67,4.07,6,3.83,2.91,10.51,3.24,15.67-.75a8.09,8.09,0,0,0,3.67-3.75l1.16-1.75c.41-.84.08-.5.41-1.5l.26-1.5c1.25-2.92.74-6.58,0-10.41a21.15,21.15,0,0,0-5.84-9.34c-1.74-1.33-3.66-2.92-5.24-3.16a5.71,5.71,0,0,0-2.67-1.17l-2.75-.91c-7.58-1.17-16.33.58-22.74,6.16-6.84,5.75-9.76,13.91-10.09,21.91A37.71,37.71,0,0,0,1110.35,1134.28Z" transform="translate(-126.08 -267)"/><path class="cls-1" d="M381.19,1178.86c-10.75-4.51-19.42-16.08-14-29.33,14.91-35.07,86.48,30.66,186.5-89.15C517.49,1124,434.8,1201.19,381.19,1178.86Z" transform="translate(-126.08 -267)"/><path class="cls-1" d="M465.63,1219.77c3.16,5.49,10.12,9.32,16.78,5.49,18-10.75-22.78-44.49,34.62-107.64C485.33,1142,449.59,1192.44,465.63,1219.77Z" transform="translate(-126.08 -267)"/><path class="cls-1" d="M1642.9,1178.86c10.66-4.51,19.25-16.08,14-29.33-14.91-35.07-86.47,30.66-186.87-89.15C1506.68,1124,1589.16,1201.19,1642.9,1178.86Z" transform="translate(-126.08 -267)"/><path class="cls-1" d="M1558.41,1219.77c-3.08,5.49-10.07,9.32-16.74,5.49-18-10.75,22.75-44.49-34.57-107.64C1538.67,1142,1574.5,1192.44,1558.41,1219.77Z" transform="translate(-126.08 -267)"/><rect class="cls-1" x="173.04" y="974.51" width="1425.76" height="8.57"/><path class="cls-1" d="M943.93,1449.63c-4-10.25.58-21.08,6.92-25.08,2.79-2.33,7.95-4,11.41-3.49,3.33,0,5.71,2.33,8.5,4.07a7.36,7.36,0,0,1,3.42,5.67c1.16,2.25,0,4,0,5.17a10.82,10.82,0,0,0-1.13,2.91,5.83,5.83,0,0,1,.62-2.91c-.62-2.92-.62-5.67-5.2-9.09-3.41-1.75-9-2.33-13.08,1.67-4.54,3.91-5.75,11.41-2.88,17.67.54,1.74,1.75,2.32,2.38,3.41.5.59,1.58,1.17,2.16,1.75a12,12,0,0,0,1.17,1.08l1.21.67a24.8,24.8,0,0,0,10.79,2.25c8.62-1.17,14.78-4.58,18.78-13.17,3.46-8,4-17.08,0-25.74a7.2,7.2,0,0,0-1.66-2.84c-1.13-3.32-4-6.16-7.46-8.57H1001a20.92,20.92,0,0,1,2.79,5.25,7.23,7.23,0,0,1,1.26,3.32c3.95,12,2.25,25.25-4.05,34.91l-2.28,4.59c-1.75,2.25-1.75,2.25-2.79,3.42a30.44,30.44,0,0,1-7.46,6.24,41.77,41.77,0,0,1-18.29,4.58c-5.71-.58-11.42-1.75-16-5.16l-1.75-1.17c-1.66-1.08-1.12-1.08-1.66-1.75a7.23,7.23,0,0,1-2.92-2.25A15.81,15.81,0,0,1,943.93,1449.63Z" transform="translate(-126.08 -267)"/><path class="cls-1" d="M891.94,1450.8c.55-4.58.55-10.34,1.17-15.42,1.75-5.08,2.33-10.25,4.54-15.41,1.25-2.34,2.38-4,3.45-6.34a79,79,0,0,1,4.55-8.57h19.41c-.54,1.16-1.66,1.16-2.83,2.41l-5.09,6.16c-2.28,2.84-4.58,8-7.45,11.5-1.67,4-3.42,8.59-5.08,13.17-.63,4.49-1.17,8.5-1.75,13.08v12c1.12,4,1.75,8,2.79,11.41.62,4,2.37,6.83,3.41,9.75,2.3,6.83,6.88,10.75,9.12,15.33a123.21,123.21,0,0,0,10.38,10.91,19.81,19.81,0,0,1-3.5-1.24c-1.66-2.17-5.12-3.92-9.12-7.34-3.38-4-8.54-8-12-14.33-1.75-3.33-4-6.25-5.71-10.25-1.2-4.08-2.83-8-4-12.58C893.65,1461,893.11,1455.88,891.94,1450.8Z" transform="translate(-126.08 -267)"/><path class="cls-1" d="M1114.69,1463.38c0-3.42.49-8,.49-12-.49-4.58-1.66-8.59-2.24-13.08-1.67-4.58-2.83-9.16-4.59-13.17-2.91-3.49-5.08-8.66-8-11.5l-5.09-6.16c-1.16-1.25-1.75-1.25-2.24-2.41h19.41a61.71,61.71,0,0,1,4.49,8.57c1.17,2.34,1.75,4,2.83,6.34,2.34,5.16,3.43,10.33,4.59,15.41a147.37,147.37,0,0,1,1.16,15.42c-.58,5.08-1.16,10.24-1.66,14.24-1.17,4.59-2.92,8.5-4.09,12.58-1.66,4-3.91,6.92-5.58,10.25-3.49,6.33-9.24,10.34-12.08,14.33-3.91,3.42-7.41,5.17-9.75,7.34-1.07.66-1.66,1.24-2.83,1.24a101,101,0,0,0,10.33-10.91c2.25-4.58,6.84-8.5,8.5-15.33,1.17-2.92,3.51-5.75,4.09-9.75A82.35,82.35,0,0,1,1114.69,1463.38Z" transform="translate(-126.08 -267)"/><path class="cls-1" d="M1013,1413.63a7.13,7.13,0,0,1,1.21-3.32,24.77,24.77,0,0,1,2.79-5.25h20.54c-2.79,2.41-5.71,5.25-7.38,8.57-.58,1.17-1.12,1.84-1.66,2.84-3.5,8.66-3.5,17.75.54,25.74,3.41,8.59,10.25,12,18.33,13.17,3.91,0,7.91-.58,10.83-2.25l1.09-.67a1.17,1.17,0,0,0,1.16-1.08c1.16-.58,2.25-1.16,2.25-1.75,1.08-1.09,2.33-1.67,2.83-3.41,2.83-6.26,1.75-13.76-2.83-17.67-4-4-9.67-3.42-13.17-1.67-5.12,3.42-5.12,6.17-5.12,9.09a5.75,5.75,0,0,1,.63,2.91,10.22,10.22,0,0,0-1.17-2.91c0-1.17-1.08-2.92-.55-5.17a12.33,12.33,0,0,1,3.47-5.67c3.41-1.74,5.07-4.07,9.07-4.07,3.43-.51,8.5,1.16,11.42,3.49,6.24,4,10.25,14.83,6.92,25.08a18.44,18.44,0,0,1-4.59,7.41,7.18,7.18,0,0,1-2.33,2.25c-.5.67,0,.67-1.75,1.75l-1.75,1.17c-4.49,3.41-10.24,4.58-16.41,5.16a39.36,39.36,0,0,1-17.79-4.58c-2.83-1.75-6.25-4.49-7.37-6.24a17.07,17.07,0,0,1-3.46-3.42l-2.25-4.59A43.45,43.45,0,0,1,1013,1413.63Z" transform="translate(-126.08 -267)"/><path class="cls-1" d="M1040.2,1495c-8.66-5.83-17.79-16.57-25.45-29.32-5.88-8.17-8.08-.75-8.08-.75l-5,6c-6.75,10.17-14,18.07-20.16,22.25-23.62,19-49.49,17.66-48.82,23.15.08,2,5.41,3.25,15.37,3.34,9.58-.09,24.41-3,39.15-13.33,8.63-5.84,16.17-15.75,21.79-27.16,6.17,10.91,13.37,20.24,20.38,24.82,6.78,6,14.74,8.92,21.44,12.17,7.26,1.58,13.42,3.5,18.75,3.83,10.75.17,16.92-.84,17-2.75C1087.19,1511.86,1065,1511.86,1040.2,1495Z" transform="translate(-126.08 -267)"/><path class="cls-1" d="M644.46,1450.71c5.91,5.84,12.16,16.59,17.33,29.33-1,4.75,2.37,6.16,2.37,6.16,1.21,3.34,3.09-5.49,3.09-5.49l3.37-5.92c4.54-10.08,9.5-18.24,13.7-22.33,16.13-18.91,33.66-17.66,33.16-23.16,0-2-3.66-3.24-10.37-3.24-6.62.16-16.66,3.08-26.7,13.32-5.83,5.91-10.79,15.67-14.83,27.17-4.08-10.92-9-20.33-13.75-24.92-4.66-6-10-8.83-14.54-12.08-4.95-1.67-9.2-3.49-12.78-3.75-7.38-.33-11.46.59-11.46,2.75C612.51,1433.88,627.71,1433.88,644.46,1450.71Z" transform="translate(-126.08 -267)"/><path class="cls-1" d="M1332.05,1450.71c6,5.84,12.08,16.59,17.33,29.33-1,4.75,2.34,6.16,2.34,6.16,1.16,3.34,3.25-5.49,3.25-5.49l3.32-5.92c4.51-10.08,9.42-18.24,13.76-22.33,16-18.91,33.48-17.66,33.07-23.16-.17-2-3.67-3.24-10.41-3.24-6.59.16-16.58,3.08-26.67,13.32-5.83,5.91-10.91,15.67-14.75,27.17-4.16-10.92-9.16-20.33-13.83-24.92-4.66-6-10.07-8.83-14.58-12.08-4.82-1.67-9.07-3.49-12.83-3.75-7.24-.33-11.4.59-11.4,2.75C1300.14,1433.88,1315.3,1433.88,1332.05,1450.71Z" transform="translate(-126.08 -267)"/><path class="cls-1" d="M699.53,1465c14.91-20.57,41.66-36.49,72-45.07,6.75-2.34,14.21-4,21.09-6.34l27.44-8.57h65l-10.25,5.25c-2.83,1.08-6.33,2.74-9.2,3.32-30.2,12.59-61.61,19.42-89,25.25-28.5,6.17-53.7,17-68,33.07a74.35,74.35,0,0,0-21.08,47.92,58.23,58.23,0,0,0,.63,15.4,27.49,27.49,0,0,0,.5,5.17c0-1.67-2.25-8.58-3.5-20.57A84.82,84.82,0,0,1,699.53,1465Z" transform="translate(-126.08 -267)"/><path class="cls-1" d="M1132.93,1405.06h65.15c9.67,2.91,19.33,6.33,29.08,8.57,6.25,2.34,12.58,4,18.91,5.75,30.75,9.17,57.57,25.09,71.82,46.24,14.91,19.92,16.08,41.75,14.91,54.25a67.1,67.1,0,0,1-3.41,17.66,19.09,19.09,0,0,0,.58-2.75c.58-3.42.58-8.58,0-14.91-.58-12.5-5.16-32-20.58-47.41-14.25-16.58-39.91-27.41-68.48-34.16-26.83-5.25-57.66-12.08-88.56-24.67-2.84-1.08-6.26-2.24-9.09-3.32C1139.76,1408.56,1136.35,1406.81,1132.93,1405.06Z" transform="translate(-126.08 -267)"/><path class="cls-1" d="M1358.71,1534.78s5.17,3.41,14.58,8.41c5.42,1.59,10.5,4.92,18.08,5.67,3.25.41,6.92,1.66,11.17,1.33,3.67,0,7.91-.08,12.24,0,3.92-.83,8.42-1.75,13.09-2.91,4.25-1.5,8.41-3.18,13.08-5,4.07-2.76,8.41-5.42,12.32-8.09,3.08-3.74,8-7.41,10.42-10.66l5.16-7c1.17-2.41,1.59-4.33,2.67-6.5s1.33-4.74,1.84-7.17a18.91,18.91,0,0,0,1.24-7.49c.75-10.33-1.91-21.08-8-29.41-5.5-8.83-14.33-15.67-23.34-17.08a32.85,32.85,0,0,0-26.73,6.67c-7.76,5.83-10.26,13.74-9.42,22.49,1.17,3.83,2.5,7.74,5.33,10.75l.84,1.17c-.59-.26.82.58,1,.75a24.3,24.3,0,0,0,2.67,2.08,14.4,14.4,0,0,0,4.33,1.75c6.92,1.58,14.67-1.5,17.41-7,3.34-5.08,1.33-11.25-1.33-14.33-4.16-4.34-7.41-3.42-10.66-3a28.18,28.18,0,0,0-3.59,2.08s1-.83,3.34-2.91c1.42-.26,3.17-1.59,5.25-1.34a12.09,12.09,0,0,1,7.24,2c2.42,2.84,5.26,4.67,5.92,8.33,1.66,3.25.83,9.17-.59,12.5-2.91,7.83-13.08,14.83-24.57,13.33a18.21,18.21,0,0,1-8.91-2.67c-1.34-.75-2-1.24-3.25-1.91-.42-.5-.51-.17-2-1.5l-1.41-1.5c-4.75-3.83-7.42-9.75-9.41-15.91a40.82,40.82,0,0,1,.33-19.58,38.46,38.46,0,0,1,4.66-9.5c1.34-1.34,1.09-1.83,3.33-4.08l3.76-3.34c10-9.32,24.91-14.49,39.32-11.75,15.24,2.43,27.08,12.34,34.57,23.92a62.72,62.72,0,0,1,10.51,40,42.47,42.47,0,0,1-1.68,10.08c-1,3.5-1.41,6.67-3.32,9.83-1.75,3.42-3.34,6.75-4.75,9.41l-5.58,7c-4.93,5.49-9.34,8.66-14.25,12.66-4.92,3.33-10.25,5.58-15.25,8.41-5.33,1.67-10.66,3.42-15.83,4.91-5.09.26-10.58,1-15.41,1.26-4.92-.25-9.59-.92-13.75-1.26-4.34-.82-8.5-2.57-12.24-3.58-7.17-2.16-13.09-6.66-17.75-8.91-4.25-3.42-7.17-6.5-9.67-8.08C1359.88,1535.94,1358.71,1534.78,1358.71,1534.78Z" transform="translate(-126.08 -267)"/><path class="cls-1" d="M663.91,1534.78s-5.16,3.41-14.58,8.41c-5.33,1.59-10.45,4.92-18,5.67-3.38.41-7,1.66-11.29,1.33-3.71,0-7.92-.08-12.16,0-4.09-.83-8.5-1.75-13.09-2.91-4.49-1.5-8.49-3.18-13.16-5-4.16-2.76-8.5-5.42-12.25-8.09-3.24-3.74-7.95-7.41-10.62-10.66l-5.12-7c-1-2.41-1.58-4.33-2.67-6.5-1.29-2.08-1.29-4.74-1.87-7.17a19.52,19.52,0,0,1-1.17-7.49c-.75-10.33,1.83-21.08,7.92-29.41,5.62-8.83,14.45-15.67,23.45-17.08a33.06,33.06,0,0,1,26.74,6.67c7.83,5.83,10.13,13.74,9.46,22.49-1.21,3.83-2.58,7.74-5.33,10.75l-.84,1.17c.63-.26-.91.58-1.08.75a28,28,0,0,1-2.58,2.08,17.57,17.57,0,0,1-4.46,1.75c-6.87,1.58-14.41-1.5-17.45-7-3.34-5.08-1.21-11.25,1.37-14.33,4.42-4.34,7.54-3.42,10.75-3,2.41,1.33,3.62,2.08,3.62,2.08s-1-.83-3.41-2.91c-1.3-.26-3.13-1.59-5.25-1.34-3-.25-5.17.83-7.29,2-2.46,2.84-5.25,4.67-5.88,8.33-1.75,3.25-.83,9.17.63,12.5,2.75,7.83,13,14.83,24.49,13.33a17,17,0,0,0,8.83-2.67c1.38-.75,2.21-1.24,3.34-1.91.54-.5.62-.17,2-1.5l1.41-1.5c4.67-3.83,7.38-9.75,9.46-15.91a43.18,43.18,0,0,0-.25-19.58c-1.38-3.59-3.25-7.75-4.79-9.5-1.38-1.34-1-1.83-3.33-4.08l-3.75-3.34c-10-9.32-24.87-14.49-39.33-11.75-15.37,2.43-27,12.34-34.66,23.92a64.5,64.5,0,0,0-10.45,40,48.85,48.85,0,0,0,1.71,10.08c1,3.5,1.33,6.67,3.33,9.83,1.83,3.42,3.33,6.75,4.87,9.41l5.54,7c4.88,5.49,9.38,8.66,14.25,12.66,4.83,3.33,10.08,5.58,15.29,8.41,5.25,1.67,10.62,3.42,15.79,4.91,5,.26,10.58,1,15.28,1.26,5-.25,9.63-.92,13.88-1.26,4.33-.82,8.29-2.57,12.08-3.58,7.25-2.16,13.16-6.66,17.78-8.91,4.29-3.42,7.42-6.5,9.75-8.08C662.87,1535.94,663.91,1534.78,663.91,1534.78Z" transform="translate(-126.08 -267)"/><path class="cls-1" d="M519.32,1480.37c-1.54-.17-1.75-4.66-1.12-12.25.29-3.74,2-8.16,3.5-13.25,2.41-4.49,4.91-10.24,9.41-14.65,4-5.26,11.62-10.5,20.54-14.42s19.45-5.58,29.07-6a119.2,119.2,0,0,1,32.62,3.34c-11-2.76-27.53-2.17-42.53,2.41-15.21,4.67-27.29,14.33-33.7,22.75C524,1465.13,523.11,1481,519.32,1480.37Z" transform="translate(-126.08 -267)"/><path class="cls-1" d="M1501.43,1482.37c1.42-.25,1.84-4.67,1.25-12.24-.5-3.84-2.08-8.25-3.58-13.25-2.5-4.58-5.08-10.25-9.59-14.67-3.83-5.16-11.49-10.49-20.33-14.58-9.16-3.66-19.58-5.41-29.07-5.91a115.74,115.74,0,0,0-32.57,3.41c10.91-2.74,27.32-2.16,42.41,2.5,15.16,4.5,27.4,14.17,33.65,22.66C1496.6,1467.13,1497.52,1483,1501.43,1482.37Z" transform="translate(-126.08 -267)"/><path class="cls-1" d="M601.47,1594.1c34.16,4,70.19-5.5,103.6-20.66,33-15.58,61.53-36.66,86.19-55.25,23.49-17.32,48.15-29.23,70-29.23A73.91,73.91,0,0,1,911,1504.87a48.7,48.7,0,0,1,11,10.42,20.64,20.64,0,0,1,3.33,3.83c-.91-.93-4.54-7.42-12.7-16.17a81.38,81.38,0,0,0-50.82-25.25c-25.16-2.74-54.91,7.17-81.44,24.08-14.71,9.17-29.21,19-44.66,28.08-1.37.59-2,1.5-3,1.5-8.58,5-18.21,10.08-27.24,14.66-2.05,1.51-4.25,2.17-6.38,3.59-1.37.58-3,1.5-4.33,2.16a332.87,332.87,0,0,1-37.83,14.58l-.58-.41a8.11,8.11,0,0,1-4.75,1.66,67.5,67.5,0,0,1-7.12,1.5,26.79,26.79,0,0,1-8.25,1.66c-11.08,2.1-22.29,3.34-32.53,2.76-28.29-1.34-50.28-17.25-64.36-34.75-6.92-8.41-12.79-17-16.5-25.32a133.64,133.64,0,0,1-9.83-21.17c-3.25-8.65-5.92-15.33-7-17.9.29,2.83,2,9.32,3.5,19,.87,6.75,3.16,14.58,6.37,23.33,3,9.16,8.08,18.66,13.71,29.49C542,1566.35,567.23,1589.26,601.47,1594.1Z" transform="translate(-126.08 -267)"/><path class="cls-1" d="M1420,1594.1c-34.16,4-70.24-5.5-103.65-20.66-32.9-15.58-61.31-36.66-86.14-55.25-23.33-17.32-48.16-29.23-70-29.23a74,74,0,0,0-49.74,15.91,51.32,51.32,0,0,0-11,10.42,24.13,24.13,0,0,0-3.42,3.83c1.08-.93,4.58-7.42,12.83-16.17a81,81,0,0,1,50.74-25.25c25.24-2.74,55,7.17,81.48,24.08,14.58,9.17,29.16,19,44.58,28.08,1.41.59,2.17,1.5,3.16,1.5,8.59,5,18,10.08,27.08,14.66,2.17,1.51,4.25,2.17,6.42,3.59,1.41.58,3.08,1.5,4.41,2.16a324.84,324.84,0,0,0,37.91,14.58l.5-.41c.83.91,2.91,1.58,4.83,1.66a58.8,58.8,0,0,0,7,1.5,26.62,26.62,0,0,0,8.41,1.66c10.91,2.1,22,3.34,32.41,2.76,28.25-1.34,50.24-17.25,64.32-34.75,6.83-8.41,12.92-17,16.5-25.32a143.55,143.55,0,0,0,9.91-21.17c3.17-8.65,5.83-15.33,6.91-17.9-.07,2.83-2,9.32-3.41,19-.91,6.75-3.33,14.58-6.58,23.33-2.75,9.16-8,18.66-13.5,29.49C1479.44,1566.35,1454.11,1589.26,1420,1594.1Z" transform="translate(-126.08 -267)"/><path class="cls-1" d="M906.48,1520.86a6,6,0,0,0,1.67,1.34,3.54,3.54,0,0,0,.71.91c-.63-.91-2.05-2.58-3.21-3.92a2.91,2.91,0,0,0-.37-.91,30.59,30.59,0,0,0-3.88-4.16,14.24,14.24,0,0,0-4.33-3.92,34.74,34.74,0,0,1-5.25-3.34l-4.88-1.57a6.72,6.72,0,0,1-1.08-.17c-3.7-1.51-7.2-3.34-12.08-3.75-14.37-1.75-31.58,4.25-46.78,14.08-8.12,5-16.37,10.83-24.87,15.91-1.21.42-1.54,1.25-1.83,1.08-5,3.09-10.42,5.92-15.46,8.42-1.33,1.09-2.58,1.42-3.87,2.33a24.58,24.58,0,0,0-2.25,1l3.08,2.17c18.75-9.25,75-33.5,77.44-34.16s5-.75,7.79-1.33a58.21,58.21,0,0,1,8.58.08c2.67,1.25,6.17,1.42,8.38,2.17l.29.16,4.16,1.92c1.26.75,2.09,1.58,3.3,2.24a9.74,9.74,0,0,1,2.87,3.18,8.29,8.29,0,0,1,2.66,3.24c3.5,4.75,5.59,10.92,4.8,16.58-.13,6.16-2.5,11.75-6.54,15.34a17.75,17.75,0,0,1-14.75,4.49c-5.88-.75-9-3.67-11.41-8.33a12.59,12.59,0,0,1-.38-6.83v-.75a3.88,3.88,0,0,0,.38-.59c.25-.25.29-1.49.62-1.82a8.87,8.87,0,0,1,1.5-2.09,10,10,0,0,1,10.87-1.75,7.28,7.28,0,0,1,3.12,7.5c-.58,3.42-2.5,4.08-4.16,4.66a11.43,11.43,0,0,0-1.66,0,4.12,4.12,0,0,0,1.87.58c.63-.58,1.83-.16,3-1.24a6.85,6.85,0,0,0,2.92-2.75c.46-2.34,1.2-3.92.37-6-.17-2.09-2.38-4.66-4.13-6-3.7-2.91-10.4-3.25-15.57.75a8.11,8.11,0,0,0-3.75,3.75l-1.12,1.75c-.38.84-.18.49-.38,1.5l-.29,1.49c-1.25,2.92-.79,6.59,0,10.42a20.69,20.69,0,0,0,5.83,9.33c1.83,1.34,3.84,2.92,5.25,3.17a5.82,5.82,0,0,0,2.66,1.17l2.92.91c7.42,1.17,16.25-.58,22.58-6.17,6.91-5.74,9.75-13.9,10.21-21.91A37.43,37.43,0,0,0,906.48,1520.86Z" transform="translate(-126.08 -267)"/><path class="cls-1" d="M1110.35,1520.86a16.58,16.58,0,0,1-1.5,1.34c-.5.5-.83.91-.83.91.5-.91,2.09-2.58,3.08-3.92.25-.33.25-.58.5-.91a45.36,45.36,0,0,1,3.84-4.16c1.33-1.51,2.41-3,4.25-3.92a27.79,27.79,0,0,0,5.24-3.34l5-1.57c.17-.09.58,0,1-.17,3.83-1.51,7.25-3.34,12.08-3.75,14.41-1.75,31.58,4.25,46.66,14.08,8.33,5,16.41,10.83,25.07,15.91,1.17.42,1.42,1.25,1.75,1.08,5,3.09,10.42,5.92,15.5,8.42a45.94,45.94,0,0,0,4,2.33c.67.33,1.34.58,2.09,1l-3.18,2.17c-18.65-9.25-74.89-33.5-77.39-34.16s-4.83-.75-7.75-1.33a57.2,57.2,0,0,0-8.5.08c-2.74,1.25-6.16,1.42-8.41,2.17l-.25.16-4.34,1.92a23.33,23.33,0,0,1-3.24,2.24,8.61,8.61,0,0,0-2.76,3.18,7.73,7.73,0,0,0-2.66,3.24c-3.58,4.75-5.58,10.92-4.84,16.58.18,6.16,2.5,11.75,6.51,15.34a18,18,0,0,0,14.82,4.49c5.67-.75,9-3.67,11.34-8.33a13.14,13.14,0,0,0,.33-6.83v-.75a1.47,1.47,0,0,1-.33-.59,6.07,6.07,0,0,0-.67-1.82,4.37,4.37,0,0,0-1.42-2.09c-2.75-2.84-7.66-3.33-10.91-1.75a7.25,7.25,0,0,0-3,7.5c.49,3.42,2.41,4.08,4.07,4.66a10.49,10.49,0,0,1,1.59,0,3.49,3.49,0,0,1-1.75.58c-.59-.58-1.92-.16-3.17-1.24a7.12,7.12,0,0,1-2.91-2.75c-.33-2.34-1.17-3.92-.33-6,.16-2.09,2.5-4.66,4.07-6,3.83-2.91,10.51-3.25,15.67.75a8,8,0,0,1,3.67,3.75l1.16,1.75c.41.84.08.49.41,1.5l.26,1.49c1.25,2.92.74,6.59,0,10.42a21.06,21.06,0,0,1-5.84,9.33c-1.74,1.34-3.66,2.92-5.24,3.17a5.92,5.92,0,0,1-2.67,1.17l-2.75.91c-7.58,1.17-16.33-.58-22.74-6.17-6.84-5.74-9.76-13.9-10.09-21.91A37.71,37.71,0,0,1,1110.35,1520.86Z" transform="translate(-126.08 -267)"/><path class="cls-1" d="M381.19,1476.29c-10.75,4.5-19.42,16.08-14,29.33,14.91,35.07,86.48-30.66,186.5,89.14C517.49,1531.2,434.8,1454,381.19,1476.29Z" transform="translate(-126.08 -267)"/><path class="cls-1" d="M465.63,1435.38c3.16-5.49,10.12-9.32,16.78-5.49,18,10.75-22.78,44.49,34.62,107.64C485.33,1513.12,449.59,1462.71,465.63,1435.38Z" transform="translate(-126.08 -267)"/><path class="cls-1" d="M1642.9,1476.29c10.66,4.5,19.25,16.08,14,29.33-14.91,35.07-86.47-30.66-186.87,89.14C1506.68,1531.2,1589.16,1454,1642.9,1476.29Z" transform="translate(-126.08 -267)"/><path class="cls-1" d="M1558.41,1435.38c-3.08-5.49-10.07-9.32-16.74-5.49-18,10.75,22.75,44.49-34.57,107.64C1538.67,1513.12,1574.5,1462.71,1558.41,1435.38Z" transform="translate(-126.08 -267)"/><rect class="cls-1" x="173.04" y="1138.06" width="1425.76" height="8.57"/><path class="cls-1" d="M176.77,1327.59H142.05v21.7a3,3,0,0,0,.64,2.06,4.28,4.28,0,0,0,2.18,1.12v1.41H126.08v-1.41a4.45,4.45,0,0,0,2.2-1.15,2.94,2.94,0,0,0,.62-2v-51a2.94,2.94,0,0,0-.62-2,4.45,4.45,0,0,0-2.2-1.15v-1.41h18.79v1.41a4.12,4.12,0,0,0-2.2,1.13,3.06,3.06,0,0,0-.62,2v19.41h34.72v-19.41a3.06,3.06,0,0,0-.61-2,4.15,4.15,0,0,0-2.21-1.13v-1.41h18.8v1.41a4.49,4.49,0,0,0-2.21,1.15,3,3,0,0,0-.62,2v51a3,3,0,0,0,.62,2,4.49,4.49,0,0,0,2.21,1.15v1.41H174v-1.41a4.24,4.24,0,0,0,2.18-1.12,3,3,0,0,0,.64-2.06Z" transform="translate(-126.08 -267)"/><path class="cls-1" d="M236.71,1292.6q15.76,0,25,8.51,9.75,8.92,9.76,23a29.94,29.94,0,0,1-4.68,16.14q-9.15,14.65-30,14.65-15.63,0-24.86-8.51a29.81,29.81,0,0,1-7.5-10.9,31.33,31.33,0,0,1-2.25-11.78,30.87,30.87,0,0,1,4.63-16.55Q215.7,1292.86,236.71,1292.6Zm0,10.23A20.79,20.79,0,0,0,222.4,1308q-6.79,6-6.8,15.82t6.8,15.82a20.91,20.91,0,0,0,14.44,5.12q8.7,0,14.4-5.12a19.88,19.88,0,0,0,5.21-7.45A21.33,21.33,0,0,0,258,1324q0-10.23-6.8-16.09A21.65,21.65,0,0,0,236.76,1302.83Z" transform="translate(-126.08 -267)"/><path class="cls-1" d="M312,1303.58v45.67a3,3,0,0,0,.62,2.07,4.45,4.45,0,0,0,2.2,1.15v1.41H296v-1.41a4.45,4.45,0,0,0,2.2-1.15,3,3,0,0,0,.62-2.07v-45.67H280.1a3.06,3.06,0,0,0-2,.61,4.39,4.39,0,0,0-1.14,2.22h-1.41v-15.58h1.41a4.78,4.78,0,0,0,1.17,2.22,2.88,2.88,0,0,0,2,.61h50.52a3.09,3.09,0,0,0,2.08-.61,4.44,4.44,0,0,0,1.14-2.22h1.41v15.58h-1.41a4.39,4.39,0,0,0-1.14-2.22,3.15,3.15,0,0,0-2.08-.61Z" transform="translate(-126.08 -267)"/><path class="cls-1" d="M357.23,1327.45V1344H396a3,3,0,0,0,2-.62,4.49,4.49,0,0,0,1.15-2.21h1.41v15.58h-1.41a4.49,4.49,0,0,0-1.15-2.21,3,3,0,0,0-2-.62H341.26v-1.41a4.5,4.5,0,0,0,2.2-1.15,3.06,3.06,0,0,0,.62-2.07v-51a3.06,3.06,0,0,0-.62-2.07,4.5,4.5,0,0,0-2.2-1.15v-1.41h53.65a3,3,0,0,0,2-.63,4.54,4.54,0,0,0,1.14-2.2h1.41v15.58h-1.41a4.54,4.54,0,0,0-1.14-2.2,3,3,0,0,0-2-.63H357.23v14.3h24.44a3,3,0,0,0,2-.62,4.53,4.53,0,0,0,1.15-2.2h1.41v15.22h-1.41a4.74,4.74,0,0,0-1.15-2.19,3,3,0,0,0-2-.64Z" transform="translate(-126.08 -267)"/><path class="cls-1" d="M425.88,1344h37a3.06,3.06,0,0,0,2.07-.62,4.57,4.57,0,0,0,1.15-2.21h1.41v15.58h-1.41a4.57,4.57,0,0,0-1.15-2.21,3.06,3.06,0,0,0-2.07-.62h-53v-1.41a4.45,4.45,0,0,0,2.2-1.15,3.06,3.06,0,0,0,.62-2.07v-51a3.06,3.06,0,0,0-.62-2.07,4.45,4.45,0,0,0-2.2-1.15v-1.41H428.7v1.41a4.08,4.08,0,0,0-2.2,1.13,3.09,3.09,0,0,0-.62,2.09Z" transform="translate(-126.08 -267)"/><path class="cls-1" d="M552.46,1298.76l-7.19,14.18-1.24-.71c0-.29.05-.53.05-.7,0-1-.86-2.08-2.56-3.22a31.44,31.44,0,0,0-18.44-5.48,27.13,27.13,0,0,0-8.25,1.15,10,10,0,0,0-4.22,2.64,5.62,5.62,0,0,0-1.61,3.84c0,2.26,1.37,3.81,4.11,4.63a64.58,64.58,0,0,0,9.08,1.32l6.93.71a57.12,57.12,0,0,1,10,1.8,23.61,23.61,0,0,1,6.78,3.22,15.12,15.12,0,0,1,4.74,5.69,16.8,16.8,0,0,1,1.74,7.54,17.17,17.17,0,0,1-4.1,11.28q-3.71,4.5-11.52,6.66a46,46,0,0,1-12.48,1.63,53,53,0,0,1-23.61-5.73,12.3,12.3,0,0,0-3-1.15,3.64,3.64,0,0,0-1.81,1l-1.28-.66,6.53-14.78,1.28.62v.57a4.85,4.85,0,0,0,1.9,3.66q2.87,2.57,8.86,4.41a38.51,38.51,0,0,0,11.39,1.86,23.05,23.05,0,0,0,10-2,9.73,9.73,0,0,0,3.66-2.92,6.23,6.23,0,0,0,1.37-3.81c0-2-1.07-3.42-3.22-4.28a42.87,42.87,0,0,0-9.09-1.62l-6.79-.71a95.37,95.37,0,0,1-9.66-1.34,25.06,25.06,0,0,1-5.65-2.06,14.63,14.63,0,0,1-6.31-6,16.08,16.08,0,0,1-2.08-8.21,16.65,16.65,0,0,1,5.26-12.63q6.87-6.59,20.64-6.58a47,47,0,0,1,10.77,1.17,83.23,83.23,0,0,1,12.44,4.32,13.72,13.72,0,0,0,3.13,1,3.66,3.66,0,0,0,2.17-1Z" transform="translate(-126.08 -267)"/><path class="cls-1" d="M612.2,1327.59H577.48v21.7a3,3,0,0,0,.64,2.06,4.24,4.24,0,0,0,2.18,1.12v1.41H561.51v-1.41a4.5,4.5,0,0,0,2.2-1.15,3,3,0,0,0,.62-2v-51a3,3,0,0,0-.62-2,4.5,4.5,0,0,0-2.2-1.15v-1.41H580.3v1.41a4.15,4.15,0,0,0-2.21,1.13,3.06,3.06,0,0,0-.61,2v19.41H612.2v-19.41a3.06,3.06,0,0,0-.62-2,4.08,4.08,0,0,0-2.2-1.13v-1.41h18.79v1.41a4.45,4.45,0,0,0-2.2,1.15,2.94,2.94,0,0,0-.62,2v51a2.94,2.94,0,0,0,.62,2,4.45,4.45,0,0,0,2.2,1.15v1.41H609.38v-1.41a4.28,4.28,0,0,0,2.18-1.12,3,3,0,0,0,.64-2.06Z" transform="translate(-126.08 -267)"/><path class="cls-1" d="M641.85,1349.25v-51a3,3,0,0,0-.62-2,4.5,4.5,0,0,0-2.2-1.15v-1.41h18.79v1.41a4.15,4.15,0,0,0-2.21,1.13,3.06,3.06,0,0,0-.61,2v51a3.08,3.08,0,0,0,.64,2.1,4.24,4.24,0,0,0,2.18,1.12v1.41H639v-1.41a4.5,4.5,0,0,0,2.2-1.15A3.06,3.06,0,0,0,641.85,1349.25Z" transform="translate(-126.08 -267)"/><path class="cls-1" d="M698.39,1336.38l16-35.35a9.34,9.34,0,0,0,1-3.49c0-1.26-1-2.09-2.92-2.47v-1.41h20.62v1.41a4.35,4.35,0,0,0-2.69,1.1,26.34,26.34,0,0,0-2.61,4.86l-20.88,45a12.59,12.59,0,0,0-1.32,3.75c0,1.5.92,2.39,2.78,2.65v1.41H687.62v-1.41c1.85-.26,2.78-1.16,2.78-2.69a12.52,12.52,0,0,0-1.33-3.71l-20.88-45a25.92,25.92,0,0,0-2.6-4.86,4.36,4.36,0,0,0-2.7-1.1v-1.41h21.4v1.41c-1.94.38-2.91,1.21-2.91,2.47a9.48,9.48,0,0,0,1,3.49Z" transform="translate(-126.08 -267)"/><path class="cls-1" d="M774.6,1338.53H747.23l-4.05,8.47a7.06,7.06,0,0,0-.84,2.78c0,1.29,1,2.19,2.95,2.69v1.41H725.37v-1.41a5.35,5.35,0,0,0,2.69-1.23,12.23,12.23,0,0,0,2.12-3.45l22.15-46.28a8.92,8.92,0,0,0,1.06-3.53c0-1.35-.86-2.32-2.56-2.91v-1.41h21.35v1.41c-1.73.5-2.6,1.37-2.6,2.6a6.45,6.45,0,0,0,.84,2.91L793.36,1347a15.61,15.61,0,0,0,2.56,4,5.54,5.54,0,0,0,3,1.43v1.41H776.7v-1.41c1.95-.32,2.92-1.23,2.92-2.73a7,7,0,0,0-.88-2.74Zm-3.78-8.25-9.76-21.45-9.93,21.45Z" transform="translate(-126.08 -267)"/><path class="cls-1" d="M820,1344h37a3.11,3.11,0,0,0,2.08-.62,4.49,4.49,0,0,0,1.14-2.21h1.41v15.58H860.2a4.49,4.49,0,0,0-1.14-2.21,3.11,3.11,0,0,0-2.08-.62H804v-1.41a4.49,4.49,0,0,0,2.21-1.15,3.06,3.06,0,0,0,.62-2.07v-51a3.06,3.06,0,0,0-.62-2.07,4.49,4.49,0,0,0-2.21-1.15v-1.41h18.8v1.41a4.12,4.12,0,0,0-2.21,1.13,3.14,3.14,0,0,0-.62,2.09Z" transform="translate(-126.08 -267)"/><path class="cls-1" d="M870.75,1349.25v-51a3,3,0,0,0-.62-2,4.49,4.49,0,0,0-2.21-1.15v-1.41h18.8v1.41a4.12,4.12,0,0,0-2.21,1.13,3.06,3.06,0,0,0-.61,2v51a3.14,3.14,0,0,0,.63,2.1,4.32,4.32,0,0,0,2.19,1.12v1.41h-18.8v-1.41a4.49,4.49,0,0,0,2.21-1.15A3.06,3.06,0,0,0,870.75,1349.25Z" transform="translate(-126.08 -267)"/><path class="cls-1" d="M922.57,1325.78l-9.07,7.32v16.15a3.08,3.08,0,0,0,.64,2.1,4.28,4.28,0,0,0,2.18,1.12v1.41H897.53v-1.41a4.45,4.45,0,0,0,2.2-1.15,3,3,0,0,0,.62-2.07v-51a2.94,2.94,0,0,0-.62-2,4.45,4.45,0,0,0-2.2-1.15v-1.41h18.79v1.41a4.12,4.12,0,0,0-2.2,1.13,3.06,3.06,0,0,0-.62,2v21.07l24.8-20.24c1.15-.94,1.72-1.69,1.72-2.25,0-.85-.85-1.44-2.56-1.76v-1.41h24.62v1.41a7.37,7.37,0,0,0-2.21.71q-.66.39-3.84,3l-3.4,2.82-20.47,16.45L955.37,1346a39.07,39.07,0,0,0,4.66,5,7.64,7.64,0,0,0,3.59,1.48v1.41H940.08v-1.41c1.57-.32,2.35-.88,2.35-1.68,0-.41-.71-1.5-2.12-3.26Z" transform="translate(-126.08 -267)"/><path class="cls-1" d="M1014.09,1338.53H986.72l-4.05,8.47a7.06,7.06,0,0,0-.84,2.78c0,1.29,1,2.19,2.95,2.69v1.41H964.86v-1.41a5.39,5.39,0,0,0,2.69-1.23,12.23,12.23,0,0,0,2.12-3.45l22.14-46.28a8.76,8.76,0,0,0,1.06-3.53c0-1.35-.85-2.32-2.56-2.91v-1.41h21.36v1.41c-1.74.5-2.6,1.37-2.6,2.6a6.55,6.55,0,0,0,.83,2.91l22.95,46.42a15.61,15.61,0,0,0,2.56,4,5.54,5.54,0,0,0,2.95,1.43v1.41h-22.17v-1.41c1.95-.32,2.92-1.23,2.92-2.73a7,7,0,0,0-.88-2.74Zm-3.78-8.25-9.77-21.45-9.92,21.45Z" transform="translate(-126.08 -267)"/><path class="cls-1" d="M1068.89,1349.25v-51a3,3,0,0,0-.61-2,4.54,4.54,0,0,0-2.21-1.15v-1.41h18.8v1.41a4.12,4.12,0,0,0-2.21,1.13,3.06,3.06,0,0,0-.62,2v51a3.08,3.08,0,0,0,.64,2.1,4.32,4.32,0,0,0,2.19,1.12v1.41h-18.8v-1.41a4.54,4.54,0,0,0,2.21-1.15A3.06,3.06,0,0,0,1068.89,1349.25Z" transform="translate(-126.08 -267)"/><path class="cls-1" d="M1110.54,1312.63v36.62a3.06,3.06,0,0,0,.62,2.07,4.49,4.49,0,0,0,2.21,1.15v1.41h-17.7v-1.41a4.49,4.49,0,0,0,2.21-1.15,3.06,3.06,0,0,0,.62-2.07v-51a3,3,0,0,0-.62-2,4.49,4.49,0,0,0-2.21-1.15v-1.41h20.48v1.41c-1.27.32-1.9,1-1.9,2a3.6,3.6,0,0,0,1.23,2.34l33.23,34.54v-35.73a3,3,0,0,0-.62-2,4.49,4.49,0,0,0-2.21-1.15v-1.41h17.7v1.41a4.49,4.49,0,0,0-2.21,1.15,3,3,0,0,0-.62,2v51a3.06,3.06,0,0,0,.62,2.07,4.49,4.49,0,0,0,2.21,1.15v1.41h-19v-1.41c1.24-.26,1.86-.9,1.86-1.9,0-.58-.72-1.61-2.17-3.08Z" transform="translate(-126.08 -267)"/><path class="cls-1" d="M1206.06,1303.58v45.67a3.06,3.06,0,0,0,.62,2.07,4.49,4.49,0,0,0,2.21,1.15v1.41h-18.8v-1.41a4.49,4.49,0,0,0,2.21-1.15,3.06,3.06,0,0,0,.62-2.07v-45.67h-18.71a3.06,3.06,0,0,0-2,.61,4.47,4.47,0,0,0-1.15,2.22h-1.41v-15.58H1171a5,5,0,0,0,1.17,2.22,2.93,2.93,0,0,0,2,.61h50.52a3.06,3.06,0,0,0,2.07-.61,4.52,4.52,0,0,0,1.15-2.22h1.41v15.58H1228a4.47,4.47,0,0,0-1.15-2.22,3.12,3.12,0,0,0-2.07-.61Z" transform="translate(-126.08 -267)"/><path class="cls-1" d="M1251.33,1327.45V1344h38.74a3,3,0,0,0,2-.62,4.57,4.57,0,0,0,1.15-2.21h1.41v15.58h-1.41a4.57,4.57,0,0,0-1.15-2.21,3,3,0,0,0-2-.62h-54.71v-1.41a4.54,4.54,0,0,0,2.21-1.15,3.06,3.06,0,0,0,.62-2.07v-51a3.06,3.06,0,0,0-.62-2.07,4.54,4.54,0,0,0-2.21-1.15v-1.41H1289a3,3,0,0,0,2-.63,4.63,4.63,0,0,0,1.15-2.2h1.41v15.58h-1.41a4.63,4.63,0,0,0-1.15-2.2,3,3,0,0,0-2-.63h-37.68v14.3h24.45a3,3,0,0,0,2-.62,4.37,4.37,0,0,0,1.15-2.2h1.41v15.22H1279a4.57,4.57,0,0,0-1.15-2.19,2.93,2.93,0,0,0-2-.64Z" transform="translate(-126.08 -267)"/><path class="cls-1" d="M1320,1329.31v20a3.06,3.06,0,0,0,.64,2.06,4.32,4.32,0,0,0,2.19,1.12v1.41H1304v-1.41a4.49,4.49,0,0,0,2.21-1.15,3,3,0,0,0,.62-2v-51a3.06,3.06,0,0,0-.62-2.07,4.49,4.49,0,0,0-2.21-1.15v-1.41h37.68a59.18,59.18,0,0,1,10.92.79,19.49,19.49,0,0,1,7,2.78,14,14,0,0,1,5.21,6.22,20.48,20.48,0,0,1,1.63,8.12q0,14.75-16.37,17.25l11.69,16.64a37.88,37.88,0,0,0,4.52,5.62,5.73,5.73,0,0,0,3.51,1.39v1.41h-21.76v-1.41q2.25-.35,2.25-1.59,0-.8-2.07-3.84l-12.2-17.73Zm0-9.93h20.3a53.22,53.22,0,0,0,6.35-.26,10.08,10.08,0,0,0,3.4-1.11c2.24-1.2,3.35-3.38,3.35-6.53s-1.11-5.32-3.35-6.53a9.63,9.63,0,0,0-3.38-1.12,55.35,55.35,0,0,0-6.37-.25H1320Z" transform="translate(-126.08 -267)"/><path class="cls-1" d="M1392,1312.63v36.62a3.06,3.06,0,0,0,.61,2.07,4.49,4.49,0,0,0,2.21,1.15v1.41h-17.69v-1.41a4.5,4.5,0,0,0,2.2-1.15,3,3,0,0,0,.62-2.07v-51a2.94,2.94,0,0,0-.62-2,4.5,4.5,0,0,0-2.2-1.15v-1.41h20.47v1.41c-1.27.32-1.9,1-1.9,2a3.58,3.58,0,0,0,1.24,2.34l33.22,34.54v-35.73a3,3,0,0,0-.62-2,4.45,4.45,0,0,0-2.2-1.15v-1.41H1445v1.41a4.49,4.49,0,0,0-2.21,1.15,3,3,0,0,0-.62,2v51a3.06,3.06,0,0,0,.62,2.07,4.49,4.49,0,0,0,2.21,1.15v1.41h-19v-1.41c1.23-.26,1.85-.9,1.85-1.9,0-.58-.72-1.61-2.16-3.08Z" transform="translate(-126.08 -267)"/><path class="cls-1" d="M1500.92,1338.53h-27.37l-4.06,8.47a7.06,7.06,0,0,0-.84,2.78c0,1.29,1,2.19,3,2.69v1.41h-19.93v-1.41a5.39,5.39,0,0,0,2.7-1.23,12.26,12.26,0,0,0,2.11-3.45l22.15-46.28a8.76,8.76,0,0,0,1.06-3.53c0-1.35-.85-2.32-2.56-2.91v-1.41h21.36v1.41c-1.74.5-2.61,1.37-2.61,2.6a6.45,6.45,0,0,0,.84,2.91l22.94,46.42a15.88,15.88,0,0,0,2.56,4,5.58,5.58,0,0,0,3,1.43v1.41H1503v-1.41c1.94-.32,2.92-1.23,2.92-2.73a7.22,7.22,0,0,0-.88-2.74Zm-3.78-8.25-9.77-21.45-9.92,21.45Z" transform="translate(-126.08 -267)"/><path class="cls-1" d="M1555.41,1303.58v45.67a3.06,3.06,0,0,0,.62,2.07,4.49,4.49,0,0,0,2.21,1.15v1.41h-18.8v-1.41a4.54,4.54,0,0,0,2.21-1.15,3.06,3.06,0,0,0,.61-2.07v-45.67h-18.7a3.06,3.06,0,0,0-2,.61,4.39,4.39,0,0,0-1.15,2.22H1519v-15.58h1.41a4.78,4.78,0,0,0,1.17,2.22,2.93,2.93,0,0,0,2,.61h50.52a3.06,3.06,0,0,0,2.07-.61,4.52,4.52,0,0,0,1.15-2.22h1.41v15.58h-1.41a4.47,4.47,0,0,0-1.15-2.22,3.12,3.12,0,0,0-2.07-.61Z" transform="translate(-126.08 -267)"/><path class="cls-1" d="M1587.53,1349.25v-51a2.94,2.94,0,0,0-.62-2,4.45,4.45,0,0,0-2.2-1.15v-1.41h18.79v1.41a4.12,4.12,0,0,0-2.2,1.13,3,3,0,0,0-.62,2v51a3.08,3.08,0,0,0,.64,2.1,4.28,4.28,0,0,0,2.18,1.12v1.41h-18.79v-1.41a4.45,4.45,0,0,0,2.2-1.15A3,3,0,0,0,1587.53,1349.25Z" transform="translate(-126.08 -267)"/><path class="cls-1" d="M1647.43,1292.6q15.75,0,25,8.51,9.77,8.92,9.76,23a29.94,29.94,0,0,1-4.68,16.14q-9.13,14.65-30,14.65-15.63,0-24.85-8.51a29.72,29.72,0,0,1-7.51-10.9,31.33,31.33,0,0,1-2.25-11.78,30.88,30.88,0,0,1,4.64-16.55Q1626.41,1292.86,1647.43,1292.6Zm0,10.23a20.77,20.77,0,0,0-14.35,5.12q-6.81,6-6.81,15.82t6.81,15.82q5.73,5.12,14.44,5.12t14.4-5.12a20.11,20.11,0,0,0,5.21-7.45,21.33,21.33,0,0,0,1.59-8.1q0-10.23-6.8-16.09A21.68,21.68,0,0,0,1647.47,1302.83Z" transform="translate(-126.08 -267)"/><path class="cls-1" d="M1706.48,1312.63v36.62a3.06,3.06,0,0,0,.62,2.07,4.5,4.5,0,0,0,2.2,1.15v1.41h-17.69v-1.41a4.49,4.49,0,0,0,2.21-1.15,3.06,3.06,0,0,0,.62-2.07v-51a3,3,0,0,0-.62-2,4.49,4.49,0,0,0-2.21-1.15v-1.41h20.47v1.41c-1.26.32-1.89,1-1.89,2a3.6,3.6,0,0,0,1.23,2.34l33.23,34.54v-35.73a3,3,0,0,0-.62-2,4.49,4.49,0,0,0-2.21-1.15v-1.41h17.69v1.41a4.5,4.5,0,0,0-2.2,1.15,3,3,0,0,0-.62,2v51a3.06,3.06,0,0,0,.62,2.07,4.5,4.5,0,0,0,2.2,1.15v1.41h-19v-1.41c1.24-.26,1.86-.9,1.86-1.9,0-.58-.73-1.61-2.17-3.08Z" transform="translate(-126.08 -267)"/><path class="cls-1" d="M1815.46,1338.53h-27.38l-4,8.47a7.06,7.06,0,0,0-.84,2.78c0,1.29,1,2.19,3,2.69v1.41h-19.92v-1.41a5.35,5.35,0,0,0,2.69-1.23,12,12,0,0,0,2.12-3.45l22.15-46.28a8.92,8.92,0,0,0,1.06-3.53c0-1.35-.86-2.32-2.56-2.91v-1.41H1813v1.41c-1.73.5-2.6,1.37-2.6,2.6a6.45,6.45,0,0,0,.84,2.91l22.94,46.42a15.61,15.61,0,0,0,2.56,4,5.54,5.54,0,0,0,3,1.43v1.41h-22.17v-1.41c2-.32,2.93-1.23,2.93-2.73a7.11,7.11,0,0,0-.89-2.74Zm-3.79-8.25-9.76-21.45-9.93,21.45Z" transform="translate(-126.08 -267)"/><path class="cls-1" d="M1860.81,1344h37a3.09,3.09,0,0,0,2.08-.62,4.49,4.49,0,0,0,1.14-2.21h1.41v15.58h-1.41a4.49,4.49,0,0,0-1.14-2.21,3.09,3.09,0,0,0-2.08-.62h-53v-1.41a4.49,4.49,0,0,0,2.21-1.15,3.06,3.06,0,0,0,.62-2.07v-51a3.06,3.06,0,0,0-.62-2.07,4.49,4.49,0,0,0-2.21-1.15v-1.41h18.8v1.41a4.12,4.12,0,0,0-2.21,1.13,3.14,3.14,0,0,0-.62,2.09Z" transform="translate(-126.08 -267)"/><path class="cls-1" d="M1155.62,321.5a23,23,0,0,0-21.08,32.2c-7.13,19.86-36.92,28.8-36.92,28.8,23,5,44-16,44-16s-3,47-4,58-5,25-53,4c-27.43-12-47.23-45.23-59.15-71.51a46,46,0,1,0-26.39.16c-11.93,26.25-31.7,59.37-59.08,71.35-48,21-52,7-53-4s-4-58-4-58,21,21,44,16c0,0-29.79-8.94-36.92-28.8A23,23,0,1,0,869,367.5c.47,0,.94,0,1.41-.05-.27.66-.41,1.05-.41,1.05l.6,97S946,463.82,1012.31,386C1078.62,463.82,1154,465.5,1154,465.5l.59-97s-.14-.39-.4-1.05c.46,0,.93.05,1.4.05a23,23,0,0,0,0-46Z" transform="translate(-126.08 -267)"/></svg>