<svg id="Layer_1" data-name="Layer 1" xmlns="http://www.w3.org/2000/svg" viewBox="0 0 1156 881.14"><defs><style>.cls-1{fill:#3c1f0f;}</style></defs><path class="cls-1" d="M538.42,1438v-64.83h15.23a45.19,45.19,0,0,1,9.54.73,14.08,14.08,0,0,1,5.34,2.51,14.73,14.73,0,0,1,4.47,6,21.48,21.48,0,0,1,1.6,8.39q0,8-4.45,12.11t-13,4.14h-1.37L580.49,1438H570.7l-23.65-30.91H546V1438Zm7.53-58.32v21.7h5.88q9,0,12.09-2.32T567,1391c0-4.16-1.05-7.08-3.14-8.74s-6.1-2.51-12-2.51Z" transform="translate(-422 -559.43)"/><path class="cls-1" d="M632.3,1438v-64.83h34.18v7H640v18.6h26.48V1406H640v24.84h26.48V1438Z" transform="translate(-422 -559.43)"/><path class="cls-1" d="M748.5,1402a21.92,21.92,0,0,1,9.54,7.18,17.66,17.66,0,0,1,3.21,10.58q0,8.94-5.69,14.41t-15.08,5.47a20.61,20.61,0,0,1-12.84-3.92,19.29,19.29,0,0,1-7-11.13l7-3.46q1.41,5.89,4.67,8.92a11.48,11.48,0,0,0,8.17,3,13.21,13.21,0,0,0,9.39-3.35,11.33,11.33,0,0,0,3.59-8.7,11.92,11.92,0,0,0-2.51-7.55,18.92,18.92,0,0,0-7.55-5.42l-7.88-3.37a22.43,22.43,0,0,1-9.63-7,16.58,16.58,0,0,1-3.17-10.19,14.54,14.54,0,0,1,5.14-11.42q5.13-4.52,13.11-4.52a19.87,19.87,0,0,1,10.12,2.48,16.87,16.87,0,0,1,6.66,7.31l-6.38,4.07a16.73,16.73,0,0,0-4.87-5.6,10.65,10.65,0,0,0-6.11-1.84,9.87,9.87,0,0,0-7.11,2.66,9.6,9.6,0,0,0-.64,12.75,17.74,17.74,0,0,0,6.6,4.48Z" transform="translate(-422 -559.43)"/><path class="cls-1" d="M828.2,1438v-57.48H809.87v-7.35h44.37v7.35H836V1438Z" transform="translate(-422 -559.43)"/><path class="cls-1" d="M922.08,1370.65l29.5,67.39h-8.37l-8.42-19.88H909.46L901.05,1438h-8.37Zm0,17-10.31,23.87H932.4Z" transform="translate(-422 -559.43)"/><path class="cls-1" d="M1001.75,1373.21h7.79v40.35q0,9.82,4.19,14.43t13.13,4.61q8.94,0,13.13-4.61t4.18-14.43v-40.35H1052v40.35q0,13.14-6.27,19.68t-18.88,6.53q-12.58,0-18.84-6.53t-6.27-19.68Z" transform="translate(-422 -559.43)"/><path class="cls-1" d="M1112.68,1438v-64.83h15.23a45.19,45.19,0,0,1,9.54.73,14,14,0,0,1,5.34,2.51,14.73,14.73,0,0,1,4.47,6,21.3,21.3,0,0,1,1.6,8.39q0,8-4.45,12.11t-13,4.14H1130l24.76,30.91H1145l-23.65-30.91h-1.1V1438Zm7.53-58.32v21.7h5.89q9,0,12.09-2.32t3-8.13c0-4.16-1-7.08-3.14-8.74s-6.1-2.51-12-2.51Z" transform="translate(-422 -559.43)"/><path class="cls-1" d="M1227.06,1370.65l29.49,67.39h-8.37l-8.41-19.88h-25.33L1206,1438h-8.37Zm0,17-10.32,23.87h20.64Z" transform="translate(-422 -559.43)"/><path class="cls-1" d="M1308.59,1438v-67.39l47.42,51.81v-49.25h7.35v67.36l-47.42-51.24V1438Z" transform="translate(-422 -559.43)"/><path class="cls-1" d="M1435.54,1438v-57.48h-18.33v-7.35h44.37v7.35h-18.24V1438Z" transform="translate(-422 -559.43)"/><path class="cls-1" d="M469.94,940.26H422.1V775.59h47.84v25.85q11.74-16.28,25.1-23.83t30.3-7.56q20.48,0,33.32,8.4t18.21,25.34Q588.29,787,602.8,778.53a62,62,0,0,1,31.81-8.48q17.46,0,29.63,6.47a44.61,44.61,0,0,1,18.88,19.38,56.83,56.83,0,0,1,5,16q1.5,8.89,1.51,27V940.26H641.83V858.85q0-30-6.13-40T614.3,809q-18.46,0-26.77,13.76t-8.31,45v72.51H531.38V858.85q0-29-5.71-39.28T506,809.33q-19,0-27.53,13.85t-8.56,44.57Z" transform="translate(-422 -559.43)"/><path class="cls-1" d="M900.33,940.26H854l.67-23.67q-9.74,15.61-23.42,22.91t-33.31,7.31q-32.75,0-52.8-24.34t-20.06-64.29q0-41.62,19.73-64.88t54.8-23.25q18.3,0,32.15,8.23T855,802.79v-27.2h45.32Zm-43.65-82.59q0-22.15-11.16-35.08t-30.13-12.92q-19.47,0-30.63,12.84T773.6,857.67q0,22.33,11,34.75t30.47,12.42q19.8,0,30.71-12.42T856.68,857.67Z" transform="translate(-422 -559.43)"/><path class="cls-1" d="M929.2,906.39l36.76-19a23,23,0,0,0,9.9,15.11q8.05,5.54,20,5.54,11.74,0,18.46-4.28T1021,892q0-11.91-23.84-20-7.38-2.52-11.75-4.2-29-10.9-40.2-22t-11.16-27.36q0-24.16,19-39.11t50-14.94q22.16,0,38.35,8.9A53.28,53.28,0,0,1,1065,798.46l-35.09,17.45a25.28,25.28,0,0,0-9.9-14q-7.05-4.78-17.63-4.79t-17.12,4.37q-6.54,4.37-6.54,11.41,0,12.25,32.56,22.83c2.57.79,4.53,1.4,5.88,1.85q27,8.89,38.44,20.73T1067,888.43q0,24.51-19,38.94t-51.19,14.44q-25.53,0-43.56-9.49T929.2,906.39Z" transform="translate(-422 -559.43)"/><path class="cls-1" d="M1267.09,935.26h-46.32l.67-23.67q-9.74,15.61-23.42,22.91t-33.32,7.31q-32.73,0-52.79-24.34t-20.06-64.29q0-41.62,19.73-64.88t54.8-23.25q18.3,0,32.15,8.23t23.24,24.51v-27.2h45.32Zm-43.64-82.59q0-22.15-11.16-35.08t-30.13-12.92q-19.47,0-30.63,12.84t-11.17,35.16q0,22.33,11,34.75t30.46,12.42q19.82,0,30.72-12.42T1223.45,852.67Z" transform="translate(-422 -559.43)"/><path class="cls-1" d="M1575.11,935.26h-46.33l.68-23.67q-9.75,15.61-23.42,22.91t-33.32,7.31q-32.73,0-52.79-24.34t-20.06-64.29q0-41.62,19.72-64.88t54.81-23.25q18.28,0,32.14,8.23t23.25,24.51v-27.2h45.32Zm-43.64-82.59q0-22.15-11.16-35.08t-30.13-12.92q-19.48,0-30.64,12.84t-11.16,35.16q0,22.33,11,34.75t30.46,12.42q19.8,0,30.72-12.42T1531.47,852.67Z" transform="translate(-422 -559.43)"/><path class="cls-1" d="M626.41,1263.79H578.57V1099.12h47.84V1125q11.76-16.29,25.1-23.84a60.45,60.45,0,0,1,30.3-7.55q20.48,0,33.32,8.39t18.21,25.35q11.42-16.78,25.93-25.26a62,62,0,0,1,31.81-8.48q17.46,0,29.63,6.46a44.53,44.53,0,0,1,18.88,19.39,56.72,56.72,0,0,1,5,16q1.5,8.89,1.51,27v101.39H798.3v-81.41q0-30-6.13-40t-21.4-9.91q-18.46,0-26.77,13.77t-8.31,45v72.52H687.85v-81.41q0-29-5.71-39.28t-19.64-10.24q-19,0-27.53,13.85t-8.56,44.56Z" transform="translate(-422 -559.43)"/><path class="cls-1" d="M1056.8,1263.79h-46.33l.67-23.67q-9.74,15.6-23.41,22.91t-33.32,7.3q-32.74,0-52.79-24.34t-20.06-64.29q0-41.62,19.72-64.87t54.8-23.25q18.3,0,32.15,8.22t23.25,24.51v-27.19h45.32Zm-43.64-82.59q0-22.15-11.17-35.08t-30.13-12.93q-19.47,0-30.63,12.84t-11.16,35.17q0,22.32,11,34.75t30.47,12.42q19.8,0,30.72-12.42T1013.16,1181.2Z" transform="translate(-422 -559.43)"/><path class="cls-1" d="M1266.45,1261.1q0,26-3.1,36.59a43.31,43.31,0,0,1-10.66,18.3q-10.74,11.58-27.53,17.12t-40.79,5.54q-40.12,0-60.93-12.76t-22.66-38.77h52.54q1.17,9.57,8.72,14.1t22.33,4.53q19.47,0,28.12-10.07t8.64-33.57v-23.5q-9.57,15.27-23.08,22.66t-32,7.38q-33.9,0-54.21-23.75t-20.32-64q0-41,19.81-64.12t54.72-23.16q18,0,32,8.31t23.42,24.42v-27.19h45Zm-43.31-79.9q0-21.83-11.07-34.41t-30.22-12.59q-19.63,0-30.72,12.51t-11.07,34.49q0,22,10.91,34.24t30.55,12.26q19.63,0,30.63-12.26T1223.14,1181.2Z" transform="translate(-422 -559.43)"/><polygon class="cls-1" points="933.6 540.19 918.22 540.19 917.38 540.19 902 540.19 894.38 704.85 917.38 704.85 918.22 704.85 941.22 704.85 933.6 540.19"/><path class="cls-1" d="M1533,1258.92a76.06,76.06,0,0,1-20.48,8.64,93.85,93.85,0,0,1-23.5,2.77q-38.94,0-63.45-24.76t-24.51-64.37q0-38.78,24.68-63.2t64-24.42a100.13,100.13,0,0,1,23.5,2.52A75.32,75.32,0,0,1,1533,1104l-.34,48a53.23,53.23,0,0,0-38.44-16.11q-20.14,0-32.23,12.34t-12.08,32.64q0,20.82,12.34,33.16t33.32,12.33a48,48,0,0,0,20.56-4.19,49.09,49.09,0,0,0,16.53-13.1Z" transform="translate(-422 -559.43)"/><path class="cls-1" d="M1339.5,971.43h0a55.5,55.5,0,0,1-55.5,55.5h0a55.5,55.5,0,0,1,55.5,55.5h0a55.5,55.5,0,0,1,55.5-55.5h0A55.5,55.5,0,0,1,1339.5,971.43Z" transform="translate(-422 -559.43)"/><path class="cls-1" d="M1386.45,596.79c-5.55-11.7-12.91-22.26-24.64-29.95a44.07,44.07,0,0,0-47.75-.75,55.48,55.48,0,0,0-15.37,13.76c-14.56,19-20.65,40.1-19.86,62.93a63.36,63.36,0,0,0,6,25.08c4.94,10.46,12.91,18.43,24.34,23.62,7.31,3.31,13.42,7.71,15,15.44.12.61-6.46,148.5-6.46,148.5l-2.77,63.11-1,21.9h46.84l-1-22-3-67.9-6.71-141.84c1.33-8.61,7.49-13.76,15.76-17.44a46.47,46.47,0,0,0,21.2-18.35,61,61,0,0,0,8.87-31.17C1395.92,623.73,1392.71,610,1386.45,596.79Z" transform="translate(-422 -559.43)"/><rect class="cls-1" y="728" width="649" height="15"/><rect class="cls-1" y="414" width="844" height="15"/><rect class="cls-1" x="872" y="728" width="284" height="15"/><rect class="cls-1" x="983" y="414" width="173" height="15"/></svg>