<svg id="Layer_1" data-name="Layer 1" xmlns="http://www.w3.org/2000/svg" xmlns:xlink="http://www.w3.org/1999/xlink" viewBox="0 0 2815.69 933.69"><defs><style>.cls-1{fill:url(#linear-gradient);}.cls-2{fill:#421c1b;}</style><linearGradient id="linear-gradient" x1="-331.15" y1="627.59" x2="2396.54" y2="627.59" gradientUnits="userSpaceOnUse"><stop offset="0" stop-color="#fef495"/><stop offset="0" stop-color="#fbf173"/><stop offset="0.29" stop-color="#e7b942"/><stop offset="0.65" stop-color="#fdec68"/><stop offset="1" stop-color="#e4b948"/></linearGradient></defs><path class="cls-1" d="M1179.71,1050.44a189.32,189.32,0,0,1-96.2-25.89l-.37-.21a180,180,0,0,1-67.57-70.57l-75.5-119.1c-.64-1-1.23-2-1.78-3.06a41.17,41.17,0,0,0-6.67-9.37,23.51,23.51,0,0,0-5.82-3.82,43.94,43.94,0,0,1-17.64-13.48V897a44,44,0,0,1,33.71,50.61c-4.56,25.75-18.92,47.86-41.51,63.92l-.62.44c-21.14,14.49-46,21.84-73.78,21.84-30.49,0-58.2-11.69-80.13-33.79l-.56-.57a113.62,113.62,0,0,1-31.87-73.05,208.47,208.47,0,0,1-20.79,16.92C651,973,600.78,988.1,543.25,988.1c-62.57,0-117-17.28-161.87-51.36l-.31-.25c-23.38-18.1-41.41-38.7-53.59-61.22A161.9,161.9,0,0,1,319.82,859v38a44,44,0,0,1,33.71,50.61c-4.51,25.44-18.36,47.38-40.08,63.44l-.66.48c-20.77,14.78-44.78,22.28-71.35,22.28a118.15,118.15,0,0,1-104.59-63.76c-8.34,13.32-21.26,26.69-41,38.44-28.17,16.8-61.71,25.32-99.68,25.32-37.15,0-73.3-11.38-107.45-33.83-32.22-21.15-60-50.3-82.7-86.64-.53-.84-1-1.69-1.48-2.56L-264.17,782a10.61,10.61,0,0,0-3-3.13,32.77,32.77,0,0,0-9.88-4.87,44,44,0,0,1-28-27.25,44,44,0,0,1,4.71-38.8,120.39,120.39,0,0,1,43.9-39.9h-20.87a44,44,0,0,1-44-44V574.21a44,44,0,0,1,44-44h103a149.42,149.42,0,0,1-23.45-12.64c-21.37-14-39.77-33.26-54.65-57.13-.52-.84-1-1.69-1.47-2.56L-293,384.63a44,44,0,0,1-27.38-27,44,44,0,0,1,4.7-38.8c1-1.52,2-3,3.11-4.43a43.94,43.94,0,0,1-18.53-35.88V248.75a44,44,0,0,1,44-44H432.07a44,44,0,0,1,44,44V278.5a44,44,0,0,1-38.28,43.63V429.71a44,44,0,0,1,19.83,44.88c-3.55,20-14.6,37.16-31.95,49.5l-.62.43a90.91,90.91,0,0,1-9.49,5.69H641.79l-55-53.2c-.86-.84-1.69-1.7-2.47-2.6-10.1-11.49-17.06-17.13-21.13-19.84-.27-.18-.54-.36-.8-.55-10.86,4.26-20.19,6.26-29.06,6.26-17.72,0-33.8-8-45.28-22.61-.56-.72-1.11-1.46-1.63-2.21a70,70,0,0,1-12.37-40c0-12.5,4.24-43.51,43.4-62.62,18.88-9.71,40.93-14.63,65.54-14.63,35.18,0,69.92,9,103.24,26.8l.31.17c31.82,17.31,60.13,42,84.15,73.34,14.94,19.41,30.71,34.25,46.87,44.12l1.13.71c13,8.49,25,12.8,35.55,12.8,13.61,0,24.78-1.73,33.21-5.13a44,44,0,0,1,60.45,40.81,91.51,91.51,0,0,1-2.59,21.73,43.91,43.91,0,0,1,16.39,11.9l.47-.27c36.18-21,79.81-31.64,129.69-31.64,65.39,0,119.32,14.38,160.28,42.73l.15.11q2.22,1.55,4.36,3.13a44,44,0,0,1,41.5-29.35h582.76a132,132,0,0,1-7.1-43.27c0-33.13,12-81.1,69-121.51l.4-.28c41-28.36,90.26-42.74,146.53-42.74,69.75,0,129.29,25.27,177,75.09l.21.22c36.53,38.72,58,83.13,64.1,132.49h21.56a44,44,0,0,1,44,44v49.88a44,44,0,0,1-44,44h-20.18V897a44,44,0,0,1,33.71,50.61c-4.51,25.44-18.37,47.38-40.08,63.44l-.66.48c-20.78,14.78-44.78,22.28-71.35,22.28a118.1,118.1,0,0,1-104.59-63.76c-8.34,13.32-21.27,26.69-41,38.44-28.17,16.8-61.72,25.32-99.69,25.32-37.14,0-73.29-11.38-107.45-33.83-32.22-21.15-60-50.31-82.7-86.64-.52-.84-1-1.69-1.48-2.56L1748.36,782a10.69,10.69,0,0,0-3-3.13,32.84,32.84,0,0,0-9.89-4.87,46.58,46.58,0,0,1-5.19-2V897a44,44,0,0,1,33.1,53.51c-6,24.2-20.17,45.13-41,60.54-20.41,15.1-44.12,22.76-70.49,22.76-30.51,0-58.36-10.49-80.53-30.33l-.67-.61a119.43,119.43,0,0,1-13-14.16l-2,.75-1.62.57c-21.17,7-44.83,10.53-70.33,10.53-58,0-105.66-17.92-141.54-53.26C1305.58,911.71,1287,864.49,1287,807c0-2.86,0-5.71.13-8.52a204.76,204.76,0,0,1-29.89,33c-21.39,19.3-44.94,33-70.4,41.11a205.13,205.13,0,0,0,15.28,16.92c12.18,12,20.14,16.42,24.17,18.06.45-.77.9-1.63,1.33-2.56A44,44,0,0,1,1265,879.4c.87,0,1.75-.08,2.61-.08a44,44,0,0,1,37.51,21l7.64,12.46a44,44,0,0,1,6.49,23c0,23.39-8,57.13-46,85.17C1247.18,1040.52,1215.73,1050.44,1179.71,1050.44ZM18,869.3c16.92,12,33.09,18,49.35,18.32,2.19-.34,9.44-1.7,28-6.76a44,44,0,0,1,29.43,2.26v-215h-4.48a115,115,0,0,1,3.09,26.65c0,30-10.48,73.31-60.4,108.91a203.53,203.53,0,0,1-76.7,33.74A148.21,148.21,0,0,0,18,869.3Zm2012.53,0c16.92,12,33.09,18,49.36,18.33,2.18-.34,9.44-1.7,28-6.76a44,44,0,0,1,29.44,2.26v-215h-4.48a115,115,0,0,1,3.09,26.65c0,30-10.49,73.31-60.4,108.91a203.58,203.58,0,0,1-76.71,33.74A147.93,147.93,0,0,0,2030.56,869.29Zm-537.87-69.51c0,1,0,2,0,3,0,18.54,4.1,33.33,12.52,45.2l.46.66c6.75,9.89,10.67,9.89,12.55,9.89,6.56,0,11.68-1.1,15.64-3.36l.78-.43.71-.41V831.26a75.37,75.37,0,0,1-28.26-15.89A83.47,83.47,0,0,1,1492.69,799.78ZM500.52,771q-1.14,13.07-1.14,27.64c0,17.42,4.49,30.87,14.13,42.33,9.92,11.82,18.67,13.41,25.92,13.41,3.88,0,7-.82,11.13-4.89,4.19-5,6-10.36,6-17.6a49,49,0,0,0-9.29-29.15,63.4,63.4,0,0,0-28-21.42A83.34,83.34,0,0,1,500.52,771Zm407.64-20.22a44,44,0,0,1,5.28-5.65,240.06,240.06,0,0,1,21.18-17,120,120,0,0,1-26.46-32.2ZM319.82,741c8.66-20.19,22.07-38.5,39.95-54.3a180,180,0,0,1,25-18.62H319.82Zm1602.73-44.4a42.55,42.55,0,0,0,6.15,3c.9-1.89,1.63-4.66,1.63-9.06,0-4.88-1.21-9.29-7.06-14.87-6.12-5.34-12.59-7.62-21.53-7.62h-10.4A98.51,98.51,0,0,1,1922.55,696.61ZM-90,696.61a42.56,42.56,0,0,0,6.16,3c.9-1.89,1.62-4.66,1.62-9.06,0-4.88-1.21-9.29-7.05-14.87-6.12-5.34-12.59-7.62-21.53-7.62H-121.2A98.3,98.3,0,0,1-90,696.61Zm1411.27-28.52a167.45,167.45,0,0,1,1,18.34c0,.78,0,1.57,0,2.36a179.77,179.77,0,0,1,17.49-20.7Zm409,18.41A125.41,125.41,0,0,1,1756,668.09h-25.76ZM2138,530.21q-.33-3.56-.81-7c0,.22.05.45.08.67.22,2.13.37,4.25.43,6.35Zm-1807.83,0a87.83,87.83,0,0,1-19.58-15l-.56-.57a86.51,86.51,0,0,1-17-25.49c-26,16.06-56.47,24.19-90.65,24.19-37.29,0-70.34-9.4-98.42-27.95a77.55,77.55,0,0,1-28.1,38.16l-.66.48a90.43,90.43,0,0,1-9.89,6.13Zm-349.63,0a88.81,88.81,0,0,1-19.43-14.39c-.9-.88-1.78-1.76-2.64-2.66a100.9,100.9,0,0,1-13.91,9.9,116.39,116.39,0,0,1-14.09,7.15Zm2113-45.71A44,44,0,0,1,2137,521.41a140.94,140.94,0,0,0-14.94-46c-15-27.55-27.57-27.54-32.31-27.54-.63,0-2.09,0-5.52,4.31-5.31,7.25-7.79,15.68-7.79,26.49a40.73,40.73,0,0,0,.89,9A44.15,44.15,0,0,1,2093.52,484.5ZM-96.22,413.17a32.63,32.63,0,0,0,13.5,4.69c2-.4,5.94-1.32,13.27-3.32a44.63,44.63,0,0,1,4.47-1V393.21q-4.08,3.48-8.78,6.85A137.85,137.85,0,0,1-96.22,413.17Z" transform="translate(375.15 -160.75)"/><path class="cls-2" d="M432.07,248.75V278.5H393.79V452q0,8.43,6.38,12.89a14.66,14.66,0,0,0,8.72,3.1,14.17,14.17,0,0,0,5.41-1.12q-2.3,12.9-14.13,21.32-12.32,8.44-29.17,8.43t-29.17-12.39A41.48,41.48,0,0,1,330,454.52V343q-12.76-2.47-31.91-2.48A60.07,60.07,0,0,0,279.84,343a63.64,63.64,0,0,1,19.6,23.3A59.22,59.22,0,0,1,306.73,395q0,30.75-30.54,52.56t-73.83,21.81q-47.42,0-80.68-25.29-33.27-25.77-33.27-61.48,0-27.76,21.88-47.1,22.32-19.83,53.33-19.84-13.68,25.8-13.68,66.94,0,24.79,14.59,42.15t35.55,17.35q15,0,26-11.4a41.41,41.41,0,0,0,10.48-28.27,55.62,55.62,0,0,0-10.48-32.72,64,64,0,0,0-28.26-21.82,21.61,21.61,0,0,1-8.21-5.45c-2.13-2.31-3.19-4.63-3.19-6.94q0-13.39,28.26-21.82,26.9-7.92,67.46-7.93,35.08,0,47.86,2.48V278.5H42.83V452q0,8.43,6.39,12.89a14.66,14.66,0,0,0,8.72,3.1,14.09,14.09,0,0,0,5.4-1.12q-2.28,12.9-13.67,21.32a45.92,45.92,0,0,1-27.35,8.43A42.27,42.27,0,0,1-8.21,484.27Q-21,471.88-21,454.52v-176h-89.33a45.06,45.06,0,0,1,26,14.87,41.15,41.15,0,0,1,10,27.27q0,25.78-25.07,43.64-25.53,18.35-61.07,18.34a49.56,49.56,0,0,1-8.21-1,29.59,29.59,0,0,0-7.75-1.49l13.68,22.31q14.58,27.78,36.46,43.64Q-103.94,462-80.68,462q4.55,0,22.79-4.95-.91,16.86-20.06,28.26t-46,11.4q-25.53,0-49.68-15.86t-41.48-43.64l-41-76.85a31.93,31.93,0,0,0-9.11-10.41A45.55,45.55,0,0,0-278.95,343a46.47,46.47,0,0,1,19.15-16.37,58.09,58.09,0,0,1,26.43-5.95,50.54,50.54,0,0,1,23.7,5.46,33.23,33.23,0,0,1,15,14.38q13.68,9.91,25.07,9.91,10.49,0,17.78-9.42t7.29-22.81q0-16.35-12.76-28.26-12.76-11.4-30.54-11.4h-99.36V248.75H432.07M583,362.26q42,0,82.52,21.61,39.74,21.61,70.3,61.51,27.5,35.75,58.83,54.86,30.57,19.95,59.6,19.94t49.66-8.31q0,25.78-26.74,44.06t-64.95,18.28q-33.6,0-66.47-16.62-32.84-15.78-59.6-45.72l-68.76-66.49Q601.31,427.1,587.56,418q-13.75-10-23.69-10-5.34,0-15.28,4.16c-6.61,2.78-11.71,4.15-15.28,4.15q-6.1,0-10.7-5.81a25.79,25.79,0,0,1-4.58-15q0-14.12,19.1-23.27,19.11-10,45.84-10m1506.73,4.15q86.34,0,145.18,61.51,58.82,62.34,53.48,146.29h64.18v49.88h-64.18V915q0,14.15,10.7,21.61,7.16,5.19,14.62,5.2a23.84,23.84,0,0,0,9.06-1.88q-3.82,21.63-22.92,35.75-19.87,14.14-45.84,14.13-29.8,0-51.2-20.78t-21.39-49.88V624.09H2031.64A75.56,75.56,0,0,1,2075.19,649,69,69,0,0,1,2092,694.74q0,43.23-42,73.14-42.79,30.76-102.38,30.76a84.64,84.64,0,0,1-13.76-1.66c-5.61-1.67-9.93-2.5-13-2.5l22.93,37.41q24.43,46.56,61.12,73.14,37.42,26.63,76.41,26.6,7.63,0,38.2-8.31-1.53,28.27-33.62,47.38t-77.17,19.12q-42.8,0-83.28-26.6t-69.53-73.15l-68.77-128.84a53.65,53.65,0,0,0-15.28-17.45,76.85,76.85,0,0,0-22.92-11.64q11.46-17.45,32.09-27.43,19.86-10,44.32-10,22.14,0,39.73,9.14A55.79,55.79,0,0,1,1890.28,728q22.92,16.63,42,16.62,17.57,0,29.79-15.79t12.23-38.24q0-27.42-21.39-47.38-21.4-19.11-51.2-19.11H1686.28V915q0,14.15,10.7,21.61,7.15,5.19,14.62,5.2a23.8,23.8,0,0,0,9.06-1.88q-5.36,21.63-24.45,35.75t-44.31,14.13q-29.81,0-51.2-19.12-21.39-20-21.39-47.38-14.52,15.79-39,24.94-25.21,8.31-56.54,8.31-69.54,0-110.79-40.73-42-40.71-42-108.89,0-69.83,43.55-111.38,44.31-42.39,116.9-42.39,29.8,0,52.72,8.31,22.93,9.15,35.15,24.94V624.09H1298.13V574.21h682.45a107.87,107.87,0,0,1-31.47-20q-31.32-27.42-31.33-67.32,0-49.87,50.43-85.62,50.43-34.9,121.49-34.91m-19.1,170.4q3.06,0,13-4.16l9.93-4.15q2.3,21.62-18.34,38.23a72.4,72.4,0,0,1-12.12,7.48h118.33q6.89-68.15-20.63-119.69-27.51-50.68-71.06-50.7-23.67,0-40.5,21.61-16.78,22.44-16.8,53.19,0,24.12,11.46,40.73,10.71,17.46,26.74,17.46M1518.19,902.54q21.38,0,37.43-9.14,16.8-9.14,23.69-24.11V782q-1.55,4.17-7.64,5.82-6.12,2.5-15.28,2.5-11.46,0-20.63-8.32-9.16-7.47-13.75-20.78a28,28,0,0,0,19.1-7.48q7.62-7.47,7.64-17.45,0-11.62-9.94-20.78-9.93-8.29-24.44-8.31-27.51,0-46.61,28.26-19.11,27.42-19.1,67.33,0,41.57,20.63,70.65,19.86,29.1,48.9,29.09M1091.84,557.59q84.81,0,135.24,34.91,51.18,35.75,51.19,93.93,0,67.32-50.43,112.21-42.58,38.48-98,38.47a168.6,168.6,0,0,1-18.85-1.07q29,54,60.36,84.79,32.09,31.59,58.07,31.58,11.46,0,22.16-7.48a60.71,60.71,0,0,0,16-21.61l7.65,12.47q0,29.1-28.28,49.87-27.5,20.77-67.23,20.78a145.17,145.17,0,0,1-74.12-20,136.12,136.12,0,0,1-52-54.86l-76.4-120.52A85.43,85.43,0,0,0,962,790.33a67.55,67.55,0,0,0-19.11-12.47A172.49,172.49,0,0,1,978,752.92q17.57-8.29,33.62-8.31,23.67,0,42.79,10.81,19.86,11.64,29.8,30.75h11.46q26.73,0,45.84-26.6t19.1-64.83q0-38.22-21.39-64.84T1088,603.31q-20.64,0-35.15,10.8t-14.52,26.6q0,8.32,6.88,15a24,24,0,0,0,16,5.82q10.68,0,20.62-7.48a64.15,64.15,0,0,0,17.58-21.61,56.67,56.67,0,0,1,13.75,18.28q5.34,10,5.35,19.12,0,20.79-24.45,34.91-24.47,15-59.6,15-39.74,0-67.24-21.61Q939,675.62,939,644.87q0-35.73,45.08-61.51,44.31-25.75,107.74-25.77m-163.5,16.62v49.88H864.16V915q0,14.15,10.7,21.61,7.15,5.19,14.62,5.2a23.84,23.84,0,0,0,9.06-1.88q-3.82,21.63-23.68,35.75-20.64,14.14-48.9,14.13T777.06,969q-19.89-20.77-19.87-49.88v-187Q735.78,728,703.71,728q-17.6,0-30.57,4.15A106.65,106.65,0,0,1,706,771.21a99.35,99.35,0,0,1,12.22,48.21q0,51.55-51.19,88.11T543.25,944.1q-79.47,0-135.24-42.39-55.78-43.22-55.78-103.07,0-46.54,36.68-79,37.43-33.23,89.39-33.24-22.92,43.23-22.92,112.21,0,41.58,24.45,70.65t59.6,29.09q25.22,0,43.55-19.11,17.57-19.95,17.58-47.38A93.19,93.19,0,0,0,583,777a107.14,107.14,0,0,0-47.37-36.58,36.1,36.1,0,0,1-13.75-9.14q-5.36-5.8-5.35-11.64,0-22.44,47.37-36.57Q609,669.81,677,669.8q58.83,0,80.23,4.16V624.09H275.82V915q0,14.15,10.7,21.61,7.17,5.19,14.62,5.2a23.85,23.85,0,0,0,9.07-1.88q-3.84,21.63-22.92,35.75-19.89,14.14-45.85,14.13-29.81,0-51.19-20.78t-21.4-49.88V624.09H19.1A75.53,75.53,0,0,1,62.65,649a69,69,0,0,1,16.81,45.72q0,43.23-42,73.14Q-5.35,798.65-64.95,798.64A84.55,84.55,0,0,1-78.7,797c-5.61-1.67-9.93-2.5-13-2.5l22.92,37.41Q-44.32,878.45-7.64,905q37.42,26.63,76.4,26.6,7.63,0,38.21-8.31-1.55,28.27-33.62,47.38T-3.82,989.82q-42.81,0-83.29-26.6t-69.53-73.15L-225.4,761.23a53.65,53.65,0,0,0-15.28-17.45,76.78,76.78,0,0,0-22.93-11.64q11.46-17.45,32.09-27.43,19.86-10,44.32-10,22.15,0,39.73,9.14A55.82,55.82,0,0,1-122.25,728q22.92,16.63,42,16.62,17.57,0,29.8-15.79t12.23-38.24q0-27.42-21.4-47.38Q-81,624.09-110.79,624.09H-277.36V574.21H928.34M432.07,160.75H-287.15a88,88,0,0,0-88,88V278.5a87.62,87.62,0,0,0,11,42.58,87.94,87.94,0,0,0,2.26,51.19,88,88,0,0,0,36.7,45.54l32.45,60.79c.93,1.74,1.91,3.45,3,5.12.65,1,1.31,2.08,2,3.11a88,88,0,0,0-77.52,87.38v49.88A87.71,87.71,0,0,0-339,686.84a88,88,0,0,0-7.53,74.61,88,88,0,0,0,49.29,52l63,118.07c.93,1.74,1.91,3.45,3,5.12,26,41.76,58.29,75.45,95.87,100.13h0C-94,1064-49.7,1077.82-3.82,1077.82s87.14-10.61,122.23-31.53q7.89-4.69,15-9.91c30,27.13,67.21,41.44,108,41.44a170.92,170.92,0,0,0,50.36-7.43,162.92,162.92,0,0,0,46.5-23l1.32-1c20.05-14.83,35.42-33.28,45.52-54.44,46.11,26.64,99.12,40.11,158.11,40.11,54.22,0,103.16-11.71,146-34.86a161.84,161.84,0,0,0,24.29,32.65q.54.57,1.11,1.14c30.38,30.61,68.88,46.79,111.36,46.79,36.86,0,70.06-9.94,98.66-29.55l1.24-.87c25.27-18,43.35-41.46,53.16-68.8a223,223,0,0,0,81.68,83.58l.73.43a232.8,232.8,0,0,0,118.28,31.83,212.17,212.17,0,0,0,62.66-9.12,187,187,0,0,0,57.11-29.06c19.4-14.34,34.68-31.44,45.42-50.47A223.72,223.72,0,0,0,1391,1029c28.14,10.35,59.37,15.59,92.83,15.59a281.83,281.83,0,0,0,60.5-6.3c30,25.89,67.12,39.55,107.6,39.55,35.49,0,68.92-10.86,96.67-31.4,26.88-19.89,45.89-46.53,55.33-77.43a309.74,309.74,0,0,0,73.2,67.77h0c41.45,27.24,85.73,41.06,131.61,41.06s87.14-10.61,122.24-31.53q7.88-4.69,15-9.91c30,27.13,67.21,41.44,108,41.44a170.8,170.8,0,0,0,50.35-7.43,163.11,163.11,0,0,0,46.51-23c.44-.32.88-.63,1.31-1,30.94-22.88,50.74-54.4,57.24-91.13A88,88,0,0,0,2378,871.49q-.83-.68-1.68-1.32V708.82a88,88,0,0,0,64.18-84.73V574.21a88,88,0,0,0-73.26-86.77q-3-11.15-7-22c-13-35.56-33.67-68.5-61.43-97.93l-.42-.44c-27.85-29.1-59.8-51.41-95-66.32-35-14.83-73.29-22.35-113.79-22.35-65.39,0-123.12,17-171.58,50.56l-.8.56c-26.93,19.09-48,41.43-62.75,66.41a176.93,176.93,0,0,0-24.78,90.27H1298.13a87.57,87.57,0,0,0-50.88,16.2,284.94,284.94,0,0,0-57.2-21.3c-29.62-7.64-62.66-11.52-98.21-11.52-37.62,0-72.4,5.37-104,16A88,88,0,0,0,871,430.26c-.48.2-5.07,1.91-16.61,1.92-1.11-.14-5.15-1.4-11.64-5.64-.75-.49-1.5-1-2.26-1.42-11.52-7-23.25-18.25-34.87-33.33-27.79-36.27-60.77-64.94-98-85.22l-.64-.34c-39.76-21.22-81.46-32-123.95-32-22.58,0-43.7,3.33-63.08,9.92.12-1.88.18-3.77.18-5.68V248.75a88,88,0,0,0-88-88Z" transform="translate(375.15 -160.75)"/></svg>